<svg width="17" height="21" viewBox="0 0 17 21" fill="none" xmlns="http://www.w3.org/2000/svg">
<path d="M14.4944 12.5835C15.7883 12.5835 16.837 13.6323 16.837 14.9261V15.5255C16.837 16.457 16.5041 17.3579 15.8984 18.0656C14.2636 19.9755 11.7769 20.918 8.50058 20.918C5.2236 20.918 2.73817 19.9752 1.10661 18.0644C0.50268 17.3573 0.170898 16.4578 0.170898 15.5278V14.9261C0.170898 13.6323 1.2197 12.5835 2.51347 12.5835H14.4944ZM14.4944 14.146H2.51347C2.08265 14.146 1.7334 14.4953 1.7334 14.9261V15.5278C1.7334 16.0858 1.93247 16.6255 2.29482 17.0498C3.60035 18.5786 5.64814 19.3555 8.50058 19.3555C11.353 19.3555 13.4026 18.5786 14.7113 17.0495C15.0748 16.6249 15.2745 16.0843 15.2745 15.5255V14.9261C15.2745 14.4953 14.9253 14.146 14.4944 14.146ZM8.50058 0.0883789C11.377 0.0883789 13.7089 2.42023 13.7089 5.29671C13.7089 8.1732 11.377 10.5051 8.50058 10.5051C5.62405 10.5051 3.2922 8.1732 3.2922 5.29671C3.2922 2.42023 5.62405 0.0883789 8.50058 0.0883789ZM8.50058 1.65088C6.48703 1.65088 4.8547 3.28318 4.8547 5.29671C4.8547 7.31025 6.48703 8.94257 8.50058 8.94257C10.5141 8.94257 12.1464 7.31025 12.1464 5.29671C12.1464 3.28318 10.5141 1.65088 8.50058 1.65088Z" fill="#7B99B3"/>
</svg>
