<svg width="26" height="30" viewBox="0 0 26 30" fill="none" xmlns="http://www.w3.org/2000/svg">
<path d="M0.82343 12.9465C0.376913 13.4324 0.394965 14.2018 0.863723 14.6647C1.3325 15.1276 2.07447 15.1088 2.52099 14.6229L11.8275 4.49348V28.368C11.8275 29.0392 12.3523 29.5833 12.9997 29.5833C13.6471 29.5833 14.1719 29.0392 14.1719 28.368V4.49291L23.4789 14.6229C23.9255 15.1088 24.6675 15.1276 25.1363 14.6647C25.605 14.2018 25.6231 13.4324 25.1766 12.9465L14.1317 0.925082C13.88 0.651159 13.5589 0.48917 13.2252 0.439084C13.1522 0.424355 13.0769 0.416626 12.9997 0.416626C12.922 0.416626 12.8461 0.424452 12.7728 0.439408C12.4397 0.489834 12.1195 0.651726 11.8683 0.925082L0.82343 12.9465Z" fill="white"/>
</svg>
