<svg width="129" height="129" viewBox="0 0 129 129" fill="none" xmlns="http://www.w3.org/2000/svg">
<path d="M14 101C14.0019 101.027 14.4371 107.145 16.8135 110.531L22.666 106.334L18.4688 112.186C21.8621 114.567 28 115 28 115C28 115 22.1066 115.415 18.6768 117.673L22.666 123.235L17.0186 119.185C14.4542 122.507 14 129 14 129C14 129 13.56 122.764 11.1279 119.389L5.76562 123.235L9.61133 117.871C6.24009 115.443 0.0167957 115.001 0 115C0.0138124 114.999 6.49489 114.541 9.81348 111.979L5.76562 106.334L11.3262 110.322C13.5786 106.9 13.9982 101.025 14 101Z" fill="#1F4E79"/>
<path d="M128 115L47 115" stroke="#1F4E79" stroke-linecap="round"/>
<path d="M14 1L14 82" stroke="#1F4E79" stroke-linecap="round"/>
<circle cx="36" cy="115" r="2" fill="#1F4E79"/>
<circle cx="14" cy="93" r="2" fill="#1F4E79"/>
</svg>
