<svg width="21" height="21" viewBox="0 0 21 21" fill="none" xmlns="http://www.w3.org/2000/svg">
<path d="M10.4167 0.083374C16.1696 0.083374 20.8333 4.74707 20.8333 10.5C20.8333 16.253 16.1696 20.9167 10.4167 20.9167C8.73094 20.9167 7.1019 20.5152 5.6384 19.7584L1.65317 20.8701C0.960542 21.0636 0.242271 20.6589 0.0488646 19.9663C-0.0151458 19.7371 -0.0151145 19.4947 0.0489064 19.2658L1.16105 15.2836C0.402469 13.8188 0 12.1879 0 10.5C0 4.74707 4.6637 0.083374 10.4167 0.083374ZM10.4167 1.64587C5.52665 1.64587 1.5625 5.61002 1.5625 10.5C1.5625 12.0309 1.9508 13.5036 2.68024 14.8099L2.83717 15.0909L1.67808 19.2411L5.83078 18.0825L6.11155 18.2391C7.41673 18.9668 8.88771 19.3542 10.4167 19.3542C15.3067 19.3542 19.2708 15.39 19.2708 10.5C19.2708 5.61002 15.3067 1.64587 10.4167 1.64587Z" fill="#7B99B3"/>
</svg>
