<svg width="305" height="122" viewBox="0 0 305 122" fill="none" xmlns="http://www.w3.org/2000/svg">
<g clip-path="url(#clip0_589_87)">
<path d="M92.9253 26.6546C92.8962 26.5457 92.8646 26.4392 92.8331 26.3327C92.804 26.2262 92.7724 26.1197 92.7409 26.0132C91.0739 20.674 86.4613 16.7749 81.009 16.2231C80.417 16.1795 79.8152 16.1747 79.2038 16.2158V46.3849L72.7883 39.6685L66.3728 46.3849V17.9584L17.2641 24.7546L11.6445 25.5316C4.98633 26.4537 0 32.5287 0 39.7194V81.0945C0 88.3699 5.09795 94.486 11.8483 95.3065L17.036 95.9382C17.036 95.9382 17.1428 96.2674 17.2859 96.8458C17.4679 97.5816 17.7081 98.7216 17.8659 100.113C18.3269 104.177 18.077 110.39 13.5856 114.979C13.5856 114.979 19.0621 113.749 24.9219 109.957C25.15 109.809 25.3805 109.659 25.6086 109.502C29.3842 106.938 33.2349 103.296 35.8166 98.2206L78.5414 103.422C86.4637 104.385 93.4081 97.7486 93.4081 89.2098V30.4883C93.4081 29.1572 93.2383 27.872 92.9229 26.6546H92.9253Z" fill="#88BCFF"/>
<path d="M89.4747 0L31.9681 9.18264C23.0728 10.797 15.5072 16.3322 15.0098 25.0961L66.375 18.2346V46.3827L72.7905 39.6664L79.206 46.3827V16.5888C79.8151 16.567 80.4168 16.5912 81.0113 16.6517C86.4417 17.0583 91.0713 20.9816 92.7431 26.4031C92.7771 26.5072 92.8038 26.6137 92.8353 26.7202C92.8669 26.8267 92.8984 26.9332 92.9275 27.0421C93.243 28.2353 93.4128 29.4914 93.4128 30.7935V89.3431C93.4128 97.8481 86.4708 104.458 78.546 103.497L35.8213 98.3176C33.2396 103.371 29.3888 106.999 25.6133 109.553C25.3828 109.708 25.1547 109.858 24.9266 110.005C27.074 111.053 29.4568 111.845 31.9706 112.365L89.4771 121.751C106.229 121.751 119.808 108.289 119.808 91.686V30.065C119.805 13.4617 106.224 0 89.4747 0Z" fill="#012C64"/>
</g>
<path d="M234.672 59.0416V26.1411H245.57V33.7493H288.958V26.1411H299.856V59.0416H234.672ZM288.958 42.4885H245.57V50.1996H288.958V42.4885ZM272.816 81.3522H300.062V105.205H288.752V90.7083H233.952V81.3522H261.712V74.4637H229.531V65.0048H304.894V74.4637H272.816V81.3522Z" fill="#012C64"/>
<path d="M217.101 52.0506V68.7064H205.997V25.833H217.101V40.8439H226.971V52.0506H217.101ZM201.371 62.1264C199.177 63.1545 196.127 63.977 192.22 64.5939C188.382 65.1422 184.167 65.4164 179.574 65.4164H150.375V27.3752H196.436V37.1425H161.582V55.6491H180.191C184.646 55.6491 188.725 55.3749 192.426 54.8266C196.127 54.2782 199.109 53.49 201.371 52.4618V62.1264ZM217.101 72.4077V104.177H152.945V72.4077H217.101ZM205.997 94.41V82.1751H164.049V94.41H205.997Z" fill="#012C64"/>
<defs>
<clipPath id="clip0_589_87">
<rect width="119.805" height="121.753" fill="white"/>
</clipPath>
</defs>
</svg>
