<svg width="13" height="21" viewBox="0 0 13 21" fill="none" xmlns="http://www.w3.org/2000/svg">
<path d="M1.8125 0.864624C1.8125 0.433155 1.46272 0.083374 1.03125 0.083374C0.599781 0.083374 0.25 0.433155 0.25 0.864624V3.98962C0.25 4.92346 0.952177 5.69329 1.85734 5.79993L0.799292 8.40933C0.374406 9.45712 0.420511 10.6826 0.922438 11.6829L5.07854 19.9653C5.37427 20.5546 5.91521 20.9167 6.5 20.9167C7.08479 20.9167 7.62573 20.5546 7.92146 19.9653L12.0776 11.6829C12.5795 10.6826 12.6256 9.45712 12.2007 8.40933L11.1426 5.79993C12.0478 5.69329 12.75 4.92346 12.75 3.98962V0.864624C12.75 0.433155 12.4002 0.083374 11.9688 0.083374C11.5373 0.083374 11.1875 0.433155 11.1875 0.864624V3.98962C11.1875 4.13345 11.0709 4.25004 10.9271 4.25004H2.07292C1.92909 4.25004 1.8125 4.13345 1.8125 3.98962V0.864624ZM9.46167 5.81254L10.7527 8.9965C11.0106 9.63254 10.9789 10.3885 10.681 10.9821L7.28125 17.7572V10.8118C7.74833 10.5417 8.0625 10.0367 8.0625 9.45837C8.0625 8.59546 7.36292 7.89587 6.5 7.89587C5.63708 7.89587 4.9375 8.59546 4.9375 9.45837C4.9375 10.0367 5.25167 10.5417 5.71875 10.8118V17.7572L2.31898 10.9821C2.0211 10.3885 1.98936 9.63254 2.24728 8.9965L3.53829 5.81254H9.46167Z" fill="#7B99B3"/>
</svg>
