<svg width="13" height="18" viewBox="0 0 13 18" fill="none" xmlns="http://www.w3.org/2000/svg">
<path d="M0.771484 3.08707C0.771484 1.65834 1.9297 0.500122 3.35843 0.500122H6.13048V5.67402H3.35843C1.9297 5.67402 0.771484 4.5158 0.771484 3.08707V3.08707Z" fill="white"/>
<path d="M0.771484 9.00003C0.771484 7.5713 1.9297 6.41309 3.35843 6.41309H6.13048V11.587H3.35843C1.9297 11.587 0.771484 10.4288 0.771484 9.00003V9.00003Z" fill="white"/>
<path d="M0.771484 14.9129C0.771484 13.4841 1.9297 12.3259 3.35843 12.3259H6.13048V14.9196C6.13048 16.3446 4.97526 17.4998 3.55022 17.4998H3.35843C1.9297 17.4998 0.771484 16.3416 0.771484 14.9129V14.9129Z" fill="white"/>
<path d="M12.2275 3.08707C12.2275 1.65834 11.0693 0.500122 9.64059 0.500122H6.86855V5.67402H9.64059C11.0693 5.67402 12.2275 4.5158 12.2275 3.08707V3.08707Z" fill="white"/>
<ellipse cx="9.45624" cy="9.00003" rx="2.5871" ry="2.58695" fill="white"/>
</svg>
