<?xml version="1.0" encoding="UTF-8"?>
<svg id="Layer_1" data-name="Layer 1" xmlns="http://www.w3.org/2000/svg" viewBox="0 0 1694 250">
  <defs>
    <style>
      .cls-1 {
        fill: #08976c;
      }
    </style>
  </defs>
  <g>
    <path class="cls-1" d="M249.27,122.96c0,54.41-34.7,103.39-86.79,120.24-15.51,5.02-32.19,7.14-49.24,5.76,0,0-75.88-7.53-99.95-64.08-1.77-4.16,1.91-8.56,6.34-7.52,5.14,1.21,13.46,5.55,26.84,16.85,11.36,9.59,24.93,16.37,39.6,19.05,20.31,3.71,47.39,1.21,72.27-25.22,0,0,10.26-9.01,4.17-10.02-3.67-.61-7.8,2.44-11.16,4.03,0,0-12.75,8.25-21.31,12.09-5.09,2.29-12.75,4.71-18.12,6.29-4.99,1.47-10.16,2.33-15.37,2.33s-9.47-.9-12.18-3.58c-3.09-3.07-.52-9.9,15.22-15.12,24.35-8.06,35.01-17.47,55.81-22.17,22.32-5.04,68.81,10.96,93.86-55.93v16.99Z"/>
    <path class="cls-1" d="M190.42,18.3l-.05.14c-22.25-12.98-61.92-27.63-109.54-8.2C-22.56,52.44,3.72,155.35,3.72,155.35c0,0,17.07-85.39,102.48-71.55,42.45,6.88,78.23-10.48,96-37.02C130.7-2.21,70.18,35.94,70.18,35.94c55.79-44.15,120.57-5,137.71,6.9,38.47,24.81,30.22,69.68,30.22,69.68,21.84-59.15-46.19-93.59-47.69-94.22Z"/>
  </g>
  <g>
    <path class="cls-1" d="M341.37,39.5v43h100.6v17.6h-51.6v21h69.6v17.4h-160.8v-17.4h69.2v-21h-48.8v-60.6h21.8ZM317.37,153.9h122.8v60.6h-21.8v-43h-101v-17.6Z"/>
    <path class="cls-1" d="M528.77,46.7v22c0,10.4,2.9,20,8.7,28.8,5.8,8.8,14.3,15.53,25.5,20.2l-11.8,16.8c-14.93-6.27-25.87-17-32.8-32.2-3.33,8.27-7.9,15.57-13.7,21.9-5.8,6.33-12.77,11.3-20.9,14.9l-11.8-17c11.47-5.2,20.27-12.73,26.4-22.6,6.13-9.87,9.2-20.13,9.2-30.8v-22h21.2ZM503.17,152.9h121.4v61.6h-22v-44h-99.4v-17.6ZM565.77,39.3h20.6v41.6h17.2v-44.4h21v107.8h-21v-45.6h-17.2v44.6h-20.6V39.3Z"/>
    <path class="cls-1" d="M691.37,139.3v-11.4c-9.87-1.33-17.63-4.33-23.3-9-5.67-4.67-8.5-10.6-8.5-17.8,0-8.53,3.83-15.23,11.5-20.1,7.67-4.87,17.97-7.3,30.9-7.3s23.47,2.43,31.2,7.3c7.73,4.87,11.6,11.57,11.6,20.1,0,7.07-2.8,12.93-8.4,17.6-5.6,4.67-13.33,7.67-23.2,9v10.6c18.8-1.2,33.6-2.67,44.4-4.4l1.8,15.2c-16.53,3.07-33.87,5.1-52,6.1-18.13,1-37.4,1.57-57.8,1.7l-2.8-17c13.73,0,28.6-.2,44.6-.6ZM651.37,51.9h40v-16.4h21.8v16.4h39.6v16h-101.4v-16ZM672.17,166.5h22.2v26.8h100.2v17.6h-122.4v-44.4ZM686.07,110.3c3.8,2.13,9.1,3.2,15.9,3.2s12.33-1.07,16.2-3.2c3.87-2.13,5.8-5.2,5.8-9.2s-1.93-7.07-5.8-9.2c-3.87-2.13-9.27-3.2-16.2-3.2s-12.1,1.07-15.9,3.2c-3.8,2.13-5.7,5.2-5.7,9.2s1.9,7.07,5.7,9.2ZM788.37,36.3v59.8h24v18h-24v61.4h-22V36.3h22Z"/>
    <path class="cls-1" d="M949.17,103.3v-19.4h-40c-5.6,14-14.77,25.97-27.5,35.9-12.73,9.94-28.77,17.63-48.1,23.1l-8.6-17.4c20.4-5.47,36.2-13.27,47.4-23.4,11.2-10.13,17.6-22,19.2-35.6h-57.2v-17.6h81c0,6.4-.47,12.2-1.4,17.4h35.2v-30h22v104.2h-22v-19.6h-42v-17.6h42ZM860.27,159.3c4.87-5.33,11.8-9.43,20.8-12.3,9-2.87,19.5-4.3,31.5-4.3s22.47,1.43,31.4,4.3c8.93,2.87,15.87,6.97,20.8,12.3,4.93,5.33,7.4,11.6,7.4,18.8s-2.47,13.47-7.4,18.8c-4.93,5.33-11.9,9.43-20.9,12.3-9,2.87-19.43,4.3-31.3,4.3s-22.5-1.43-31.5-4.3c-9-2.87-15.93-6.97-20.8-12.3-4.87-5.33-7.3-11.6-7.3-18.8s2.43-13.47,7.3-18.8ZM884.77,191.7c6.67,3.2,15.93,4.8,27.8,4.8s21.17-1.6,27.9-4.8c6.73-3.2,10.1-7.73,10.1-13.6s-3.33-10.4-10-13.6c-6.67-3.2-16-4.8-28-4.8s-21.13,1.6-27.8,4.8c-6.67,3.2-10,7.73-10,13.6s3.33,10.4,10,13.6Z"/>
    <path class="cls-1" d="M1103.37,53.9v18.2h-38.8v14.8c0,9.87,1.83,19.57,5.5,29.1,3.67,9.53,8.93,18.1,15.8,25.7,6.87,7.6,14.9,13.33,24.1,17.2l-12.2,17.4c-10.13-4.53-18.97-11.17-26.5-19.9-7.54-8.73-13.37-18.9-17.5-30.5-4.13,12.53-10,23.6-17.6,33.2-7.6,9.6-16.47,16.8-26.6,21.6l-12.6-17.4c9.2-4.27,17.23-10.43,24.1-18.5,6.87-8.07,12.13-17.17,15.8-27.3,3.67-10.13,5.5-20.33,5.5-30.6v-14.8h-38.8v-18.2h99.8ZM1122.77,36.5h22v178h-22V36.5Z"/>
    <path class="cls-1" d="M1233.57,115.3c18.27-.67,35.73-2,52.4-4l1.2,15.6c-13.47,2.27-28.27,3.93-44.4,5v34.2h-22v-33c-13.6.67-28.93,1-46,1l-2.8-17.6c22.8-.13,43.33-.53,61.6-1.2ZM1190.77,57.9c3.73-4.8,8.97-8.5,15.7-11.1,6.73-2.6,14.37-3.9,22.9-3.9s16.33,1.3,23,3.9c6.67,2.6,11.87,6.3,15.6,11.1,3.73,4.8,5.6,10.27,5.6,16.4s-1.87,11.8-5.6,16.6c-3.73,4.8-8.93,8.5-15.6,11.1-6.67,2.6-14.33,3.9-23,3.9s-16.33-1.3-23-3.9c-6.67-2.6-11.87-6.3-15.6-11.1-3.73-4.8-5.6-10.33-5.6-16.6s1.87-11.6,5.6-16.4ZM1195.37,158.5h22v34.8h107.8v17.6h-129.8v-52.4ZM1212.57,85.6c4.27,2.73,9.87,4.1,16.8,4.1s12.7-1.37,16.9-4.1c4.2-2.73,6.3-6.5,6.3-11.3s-2.1-8.57-6.3-11.3c-4.2-2.73-9.83-4.1-16.9-4.1s-12.53,1.37-16.8,4.1c-4.27,2.73-6.4,6.5-6.4,11.3s2.13,8.57,6.4,11.3ZM1320.97,36.3v135.2h-22v-15.8h-34.4v-15.2h34.4V36.3h22Z"/>
    <path class="cls-1" d="M1372.26,105.2c5.93-10.47,8.9-21.3,8.9-32.5v-24.2h21.2v24.2c0,10.93,2.73,21.07,8.2,30.4,5.47,9.33,13.47,16.53,24,21.6l-12,16.6c-7.07-3.33-13.2-7.83-18.4-13.5-5.2-5.67-9.27-12.23-12.2-19.7-3.33,8.4-7.83,15.83-13.5,22.3-5.67,6.47-12.37,11.57-20.1,15.3l-12-16.6c11.33-5.47,19.96-13.43,25.9-23.9ZM1380.17,153.9h22v39.4h101.2v17.6h-123.2v-57ZM1442.56,78.7v-39.2h20.6v125h-20.6v-68h-23.6v-17.8h23.6ZM1477.76,36.5h20.8v133.2h-20.8V36.5Z"/>
    <path class="cls-1" d="M1530.56,51.7h82.2v18h-60.4v31.6h53.8v17.4h-53.8v37c14.8-.13,27.47-.53,38-1.2,10.53-.67,21.13-1.87,31.8-3.6l2.2,17.6c-12.13,2-24.17,3.33-36.1,4-11.93.67-26.5,1-43.7,1h-14V51.7ZM1670.76,36.1v178.6h-21.8v-96.2h-33.2v-17.6h33.2V36.1h21.8Z"/>
  </g>
</svg>