<svg width="245" height="69" viewBox="0 0 245 69" fill="none" xmlns="http://www.w3.org/2000/svg">
<path d="M72.1541 23.6529H76.6733V35.639C80.5489 35.537 84.9395 35.2162 88.4004 34.385V23.6529H92.9196V51.2705H88.4004V38.5845C84.9395 39.4302 80.5489 39.7365 76.6733 39.8385V51.2705H72.1541V23.6529ZM119.177 51.2705H114.443L112.484 44.5192C109.166 45.4962 105.834 45.8462 102.373 45.9191L100.828 51.2705H96.166L104.461 23.6529H110.868L119.163 51.2705H119.177ZM111.325 40.5093L107.664 27.8524L103.617 41.6904C106.263 41.5446 108.765 41.2384 111.325 40.5093ZM122.438 23.6529H130.26C131.605 30.5355 134.408 38.4387 137.74 45.467V23.6529H142.202V51.2705H135.824C132.163 44.5192 128.973 36.2369 126.914 28.4503V51.2705H122.452V23.6529H122.438ZM166.529 33.9038V41.0342C166.529 47.7418 161.323 51.2705 156.317 51.2705H146.993V23.6529H156.317C161.323 23.6529 166.529 27.1817 166.529 33.8892V33.9038ZM156.303 47.0856C159.421 47.0856 161.995 44.9858 161.995 41.0342V33.9038C161.995 29.9522 159.421 27.8524 156.303 27.8524H151.498V47.0856H156.303ZM175.324 51.2705H170.805V23.6529H180.844C185.335 23.6529 188.896 26.3505 188.896 31.2354C188.896 37.6659 183.132 41.0634 175.324 41.8654V51.2705ZM184.377 31.4541C184.377 29.2523 183.075 27.8524 180.816 27.8524H175.324V37.6367C182.117 36.8347 184.377 34.385 184.377 31.4541ZM192.671 23.6529H197.191V51.2705H192.671V23.6529ZM211.707 51.7955C206.701 51.7955 201.495 48.2667 201.495 41.5592V33.3789C201.495 26.6713 206.701 23.1426 211.707 23.1426C216.297 23.1426 221.031 26.1172 221.818 31.7457H217.227C216.612 28.8732 214.352 27.3712 211.707 27.3712C208.589 27.3712 206.015 29.4273 206.015 33.3789V41.5592C206.015 45.5108 208.589 47.5668 211.707 47.5668C214.481 47.5668 216.812 45.9628 217.298 42.8423H221.861C221.246 48.7187 216.369 51.7955 211.707 51.7955ZM225.779 23.6529H230.298V36.3389C235.104 32.3144 238.665 27.5316 240.409 23.6529H245C243.556 27.3567 240.61 32.0082 236.662 36.2077L244.886 51.2705H239.609L233.259 39.4594C232.301 40.3051 231.299 41.1071 230.27 41.8362V51.2705H225.75V23.6529H225.779Z" fill="url(#paint0_linear_2070_566)"/>
<path d="M58.8856 28.5148L12.9856 0.327005C12.2856 -0.0965425 11.4142 -0.111148 10.6999 0.297795C9.98558 0.706737 9.54272 1.48081 9.54272 2.3133V38.5485C9.54272 39.8337 10.557 40.8707 11.8142 40.8707C13.0713 40.8707 14.0856 39.8337 14.0856 38.5485V32.0492H26.357V50.1741C26.357 51.4594 27.3713 52.4964 28.6284 52.4964C29.8856 52.4964 30.8999 51.4594 30.8999 50.1741V21.3583C30.8999 20.0731 29.8856 19.0361 28.6284 19.0361C27.3713 19.0361 26.357 20.0731 26.357 21.3583V27.4048H14.0856V6.41732L53.4141 30.5595L35.0141 42.6379C33.957 43.3244 33.657 44.7703 34.3284 45.851C34.757 46.5375 35.4999 46.9172 36.2427 46.9172C36.657 46.9172 37.0856 46.8004 37.4713 46.5521L58.957 32.4582C59.6141 32.02 60.0141 31.2752 59.9998 30.4719C59.9998 29.6686 59.5713 28.9238 58.8998 28.5148H58.8856Z" fill="url(#paint1_linear_2070_566)"/>
<path d="M2.27143 68.2843C1.88571 68.2843 1.5 68.1821 1.15714 67.9776C0.442857 67.5687 0 66.7946 0 65.9621V16.7138C0 15.4286 1.01429 14.3916 2.27143 14.3916C3.52857 14.3916 4.54285 15.4286 4.54285 16.7138V61.8581L19.2857 52.8176C20.3571 52.1603 21.7571 52.5109 22.4 53.6208C23.0428 54.7162 22.7 56.1475 21.6143 56.8048L3.42857 67.9484C3.07143 68.1675 2.67143 68.2843 2.25714 68.2843H2.27143Z" fill="url(#paint2_linear_2070_566)"/>
<defs>
<linearGradient id="paint0_linear_2070_566" x1="72.1541" y1="37.4617" x2="245.014" y2="37.4617" gradientUnits="userSpaceOnUse">
<stop stop-color="#E100FF"/>
<stop offset="0.03" stop-color="#DB03FC"/>
<stop offset="0.36" stop-color="#A029E7"/>
<stop offset="0.65" stop-color="#7544D8"/>
<stop offset="0.87" stop-color="#5B55CE"/>
<stop offset="1" stop-color="#525CCB"/>
</linearGradient>
<linearGradient id="paint1_linear_2070_566" x1="44.7999" y1="8.12612" x2="-18.8865" y2="58.3933" gradientUnits="userSpaceOnUse">
<stop stop-color="#E100FF"/>
<stop offset="1" stop-color="#525CCB"/>
</linearGradient>
<linearGradient id="paint2_linear_2070_566" x1="44.8285" y1="8.16984" x2="-18.8574" y2="58.4225" gradientUnits="userSpaceOnUse">
<stop stop-color="#E100FF"/>
<stop offset="1" stop-color="#525CCB"/>
</linearGradient>
</defs>
</svg>
