<svg width="19" height="20" viewBox="0 0 19 20" fill="none" xmlns="http://www.w3.org/2000/svg">
<path d="M7.98906 0.637341C8.86188 -0.0986794 10.1381 -0.0986794 11.0109 0.637352L18.0422 6.56662C18.5702 7.01196 18.875 7.66756 18.875 8.35835V18.0561C18.875 19.0629 18.0589 19.879 17.0521 19.879H13.4062C12.3995 19.879 11.5833 19.0629 11.5833 18.0561V12.8404C11.5833 12.6966 11.4668 12.58 11.3229 12.58H7.67708C7.53323 12.58 7.41666 12.6966 7.41666 12.8404V18.0561C7.41666 19.0629 6.60052 19.879 5.59375 19.879H1.94792C0.941146 19.879 0.125 19.0629 0.125 18.0561V8.35835C0.125 7.66756 0.42974 7.01196 0.957833 6.56662L7.98906 0.637341ZM10.0036 1.83183C9.71271 1.58649 9.28729 1.58649 8.99635 1.83183L1.96511 7.76111C1.78908 7.90955 1.6875 8.12809 1.6875 8.35835V18.0561C1.6875 18.2 1.80409 18.3165 1.94792 18.3165H5.59375C5.73757 18.3165 5.85416 18.2 5.85416 18.0561V12.8404C5.85416 11.8336 6.67031 11.0175 7.67708 11.0175H11.3229C12.3297 11.0175 13.1458 11.8336 13.1458 12.8404V18.0561C13.1458 18.2 13.2624 18.3165 13.4062 18.3165H17.0521C17.1959 18.3165 17.3125 18.2 17.3125 18.0561V8.35835C17.3125 8.12809 17.2109 7.90955 17.0349 7.76111L10.0036 1.83183Z" fill="#7B99B3"/>
</svg>
