<svg width="21" height="21" viewBox="0 0 21 21" fill="none" xmlns="http://www.w3.org/2000/svg">
<path d="M17.0754 3.18444C19.0455 4.91175 19.2423 7.90907 17.515 9.87915L15.5397 12.1321C15.267 12.4431 14.7937 12.4742 14.4826 12.2015C14.1716 11.9288 14.1405 11.4555 14.4132 11.1444L16.3885 8.8915C17.5704 7.54355 17.4357 5.49275 16.0878 4.31091C14.7398 3.12907 12.689 3.26372 11.5072 4.61167L9.53189 6.8646C9.25916 7.17566 8.7859 7.20673 8.47483 6.934C8.16377 6.66127 8.13269 6.18801 8.40543 5.87694L10.3807 3.62401C12.108 1.65394 15.1054 1.45713 17.0754 3.18444Z" fill="black"/>
<path d="M4.23364 17.8285C6.20372 19.5558 9.20104 19.359 10.9284 17.3889L12.9037 15.136C13.1764 14.8249 13.1453 14.3517 12.8343 14.0789C12.5232 13.8062 12.0499 13.8373 11.7772 14.1483L9.80189 16.4013C8.62004 17.7492 6.56924 17.8839 5.2213 16.702C3.87335 15.5202 3.7387 13.4694 4.92054 12.1214L6.89585 9.8685C7.16858 9.55744 7.1375 9.08418 6.82644 8.81144C6.51537 8.53871 6.04211 8.56978 5.76938 8.88085L3.79407 11.1338C2.06676 13.1039 2.26357 16.1012 4.23364 17.8285Z" fill="black"/>
<path d="M9.07888 13.441C8.80615 13.7521 8.33289 13.7832 8.02182 13.5104C7.71076 13.2377 7.67968 12.7645 7.95242 12.4534L12.2322 7.57204C12.505 7.26097 12.9782 7.2299 13.2893 7.50263C13.6004 7.77537 13.6314 8.24863 13.3587 8.55969L9.07888 13.441Z" fill="black"/>
</svg>
