<svg width="316" height="114" viewBox="0 0 316 114" fill="none" xmlns="http://www.w3.org/2000/svg">
<path d="M314.013 64.9546H307.319V36.8535H314.013V64.9546ZM314.013 81.2966H284.223V85.5781H315.762V90.8848H277.59V76.4121H307.38V72.4924H277.469V67.2461H314.013V81.2966ZM300.505 45.5371H295.621V57.4167C298.173 57.1956 300.565 56.9544 302.797 56.6931L303.098 61.5173C294.314 62.8842 283.339 63.5676 270.173 63.5676L269.449 58.261L275.66 58.2007V45.5371H270.896V40.3511H300.505V45.5371ZM282.113 58.0801C284.485 58.0198 286.857 57.9293 289.229 57.8087V45.5371H282.113V58.0801Z" fill="url(#paint0_linear_636_218)"/>
<path d="M260.525 91.4275H253.771V36.8535H260.525V91.4275ZM231.157 40.8335C233.891 40.8335 236.323 41.6275 238.454 43.2155C240.605 44.7833 242.293 47.0246 243.519 49.9392C244.745 52.8337 245.369 56.2107 245.389 60.0701C245.369 63.9495 244.745 67.3466 243.519 70.2612C242.313 73.1759 240.635 75.4272 238.484 77.0151C236.333 78.583 233.891 79.3669 231.157 79.3669C228.403 79.3669 225.951 78.583 223.8 77.0151C221.649 75.4272 219.961 73.1759 218.735 70.2612C217.529 67.3466 216.926 63.9495 216.926 60.0701C216.926 56.2107 217.529 52.8337 218.735 49.9392C219.961 47.0246 221.649 44.7833 223.8 43.2155C225.951 41.6275 228.403 40.8335 231.157 40.8335ZM231.157 46.8638C229.609 46.8638 228.243 47.3864 227.057 48.4316C225.891 49.4769 224.986 50.9945 224.343 52.9845C223.7 54.9745 223.378 57.3363 223.378 60.0701C223.378 62.8239 223.7 65.1958 224.343 67.1858C224.986 69.1758 225.891 70.7034 227.057 71.7688C228.243 72.814 229.609 73.3367 231.157 73.3367C232.685 73.3367 234.032 72.814 235.198 71.7688C236.363 70.7034 237.268 69.1758 237.911 67.1858C238.554 65.1958 238.876 62.8239 238.876 60.0701C238.876 57.3363 238.554 54.9845 237.911 53.0146C237.268 51.0247 236.363 49.507 235.198 48.4618C234.032 47.3964 232.685 46.8638 231.157 46.8638Z" fill="url(#paint1_linear_636_218)"/>
<path d="M189.548 77.8594H163.739V42.1602H189.548V77.8594ZM170.312 72.4924H182.855V47.4065H170.312V72.4924ZM204.503 57.7786H212.885V63.447H204.503V91.3672H197.81V36.8535H204.503V57.7786Z" fill="url(#paint2_linear_636_218)"/>
<g clip-path="url(#clip0_636_218)">
<path fill-rule="evenodd" clip-rule="evenodd" d="M139.076 19.6729C134.617 10.8761 126.696 4.17021 117.134 1.39657C114 0.48763 110.69 0 107.267 0C90.5859 0 76.5758 11.5705 72.6406 27.2097C72.3323 28.4308 72.0856 29.6791 71.9044 30.9469C71.6963 32.3942 69.8656 32.8662 68.9829 31.7076L54.4139 12.6043C44.1693 -0.834822 25.0947 -3.31978 11.8168 7.05307C-1.46486 17.4298 -3.92002 36.7322 6.32841 50.1712L42.8473 98.0604L46.2699 102.55C46.9136 103.393 47.5919 104.197 48.3011 104.953C48.8677 105.5 49.4535 106.038 50.0663 106.549C60.6269 115.342 75.0457 116.224 86.3232 109.896C87.1904 109.35 88.0422 108.753 88.8708 108.106C98.7454 100.393 102.627 87.7421 99.759 76.2341C99.1925 73.9676 101.058 71.861 103.351 72.1146C104.639 72.255 105.941 72.3291 107.267 72.3291C112.767 72.3291 117.974 71.0691 122.63 68.826C134.675 63.0134 143 50.573 143 36.1665C143 30.2252 141.585 24.6194 139.076 19.6768V19.6729ZM71.978 50.1868L68.6787 45.8762L35.0158 72.6178L42.7975 82.7839L42.7782 82.7995L52.7954 95.8875C59.548 104.712 71.7698 106.713 80.8813 100.811C81.4979 100.42 82.1031 99.9992 82.685 99.5427C87.1868 96.0123 90.062 90.9019 90.7867 85.1479C91.5074 79.3939 89.985 73.7179 86.4969 69.1615L71.978 50.1946V50.1868ZM76.1059 95.2165C71.8199 98.5792 66.1118 98.8679 61.5908 96.4453C59.8949 95.4584 58.3571 94.1398 57.0659 92.5053L47.0603 79.4368L47.0526 79.4446L42.5354 73.5423L67.7306 53.5534L72.3865 59.639L67.4415 63.5869L77.952 76.7334C82.4692 82.6357 81.9296 90.6484 76.0981 95.2204L76.1059 95.2165ZM65.3024 41.3861L65.302 41.3856L65.3063 41.3822L65.3024 41.3861ZM65.302 41.3856L47.7772 18.4402C44.293 13.8799 39.2478 10.9619 33.5628 10.2285C27.8778 9.49122 22.2698 11.0282 17.7642 14.5548C13.2586 18.0813 10.3757 23.1878 9.65105 28.9418C8.9226 34.6958 10.4412 40.3718 13.9254 44.9321L28.3518 63.817L31.6472 68.1316L65.302 41.3856ZM28.3364 54.8837L48.9797 39.0104L37.2744 23.6871C33.2467 18.4129 26.2166 16.8135 20.4391 19.4077C20.5123 19.3445 20.5837 19.2803 20.655 19.2162L20.6551 19.2162C20.7863 19.0983 20.9173 18.9805 21.0596 18.8693C24.5515 16.1386 28.8143 15.097 32.8806 15.6236C36.9468 16.1503 40.8164 18.2451 43.5144 21.7756L57.8098 40.4928L32.5953 60.4583L28.3364 54.8837ZM126.211 18.1554C126.211 18.1554 130.798 22.2047 131.834 28.2825L131.83 28.2864C131.83 28.2864 118.41 35.5853 131.622 43.5473C131.622 43.5473 130.863 50.6355 125.583 53.4988C125.583 53.4988 113.577 45.291 112.887 61.2502C112.887 61.2502 106.231 63.4855 101.606 61.0746C101.606 61.0746 101.918 46.3014 88.4279 53.6354C88.4279 53.6354 84.115 50.4911 82.6658 43.5083C82.6658 43.5083 96.6759 36.8375 82.8739 28.2123C82.8739 28.2123 83.5985 21.8224 88.8094 18.1905C88.8094 18.1905 101.197 26.8859 101.058 10.997C101.058 10.997 105.44 9.07771 113.446 10.997C113.446 10.997 112.34 26.0823 126.211 18.1554ZM95.0456 36.1626C95.0456 42.9855 100.511 48.5172 107.252 48.5172C113.993 48.5172 119.458 42.9855 119.458 36.1626C119.458 29.3397 113.993 23.808 107.252 23.808C100.511 23.808 95.0456 29.3397 95.0456 36.1626Z" fill="url(#paint3_linear_636_218)"/>
</g>
<defs>
<linearGradient id="paint0_linear_636_218" x1="160" y1="64" x2="321" y2="64" gradientUnits="userSpaceOnUse">
<stop stop-color="#5496FF"/>
<stop offset="1" stop-color="#8739E5"/>
</linearGradient>
<linearGradient id="paint1_linear_636_218" x1="160" y1="64" x2="321" y2="64" gradientUnits="userSpaceOnUse">
<stop stop-color="#5496FF"/>
<stop offset="1" stop-color="#8739E5"/>
</linearGradient>
<linearGradient id="paint2_linear_636_218" x1="160" y1="64" x2="321" y2="64" gradientUnits="userSpaceOnUse">
<stop stop-color="#5496FF"/>
<stop offset="1" stop-color="#8739E5"/>
</linearGradient>
<linearGradient id="paint3_linear_636_218" x1="71.4991" y1="0" x2="71.4991" y2="114.004" gradientUnits="userSpaceOnUse">
<stop stop-color="#5496FF"/>
<stop offset="1" stop-color="#8739E5"/>
</linearGradient>
<clipPath id="clip0_636_218">
<rect width="143" height="114" fill="white"/>
</clipPath>
</defs>
</svg>
