<svg width="231" height="65" viewBox="0 0 231 65" fill="none" xmlns="http://www.w3.org/2000/svg">
<path d="M15.3477 15.0586V57.3828L23.0391 58.5859V64H0.566406V58.5859L7.57031 57.3828V8.09766L0.566406 6.89453V1.4375H16.1211L46.8008 50.207L47.0586 50.1211V8.09766L39.3672 6.89453V1.4375H61.8398V6.89453L54.8359 8.09766V64H47.1016L15.6055 14.9727L15.3477 15.0586ZM94.4102 64.9023C90.3711 64.9023 86.7474 64.1289 83.5391 62.582C80.3307 61.0352 77.6094 58.8438 75.375 56.0078C70.7344 50.2214 68.4141 42.6159 68.4141 33.1914V32.2891C68.4141 22.8932 70.7344 15.2734 75.375 9.42969C77.6094 6.59375 80.3307 4.40234 83.5391 2.85547C86.7474 1.30859 90.3711 0.535156 94.4102 0.535156C98.6784 0.535156 102.431 1.30859 105.668 2.85547C108.934 4.40234 111.655 6.59375 113.832 9.42969C116.038 12.2656 117.685 15.6315 118.773 19.5273C119.891 23.3945 120.449 27.6484 120.449 32.2891V33.1914C120.449 37.8607 119.891 42.1289 118.773 45.9961C117.685 49.8633 116.038 53.2005 113.832 56.0078C111.655 58.8438 108.934 61.0352 105.668 62.582C102.431 64.1289 98.6784 64.9023 94.4102 64.9023ZM94.4102 57.8555C98.5638 57.8555 101.93 56.8242 104.508 54.7617C107.057 52.6992 108.934 49.8203 110.137 46.125C111.34 42.401 111.941 38.0898 111.941 33.1914V32.2031C111.941 27.3333 111.34 23.0508 110.137 19.3555C108.905 15.6888 107 12.8242 104.422 10.7617C101.844 8.67057 98.5065 7.625 94.4102 7.625C90.6576 7.625 87.4779 8.67057 84.8711 10.7617C82.2643 12.8529 80.2878 15.7461 78.9414 19.4414C77.5951 23.1081 76.9219 27.362 76.9219 32.2031V33.1914C76.9219 38.0326 77.5951 42.3151 78.9414 46.0391C80.2878 49.763 82.2643 52.6706 84.8711 54.7617C87.4779 56.8242 90.6576 57.8555 94.4102 57.8555ZM156.07 7.83984V57.3828L163.074 58.5859V64H140.602V58.5859L147.605 57.3828V7.83984H133.426L132.18 16.5195H125.82V1.4375H177.812V16.5195H171.539L170.25 7.83984H156.07ZM208.148 64.9023C204.339 64.9023 200.672 64.3438 197.148 63.2266C193.625 62.1094 190.259 60.3906 187.051 58.0703V44.707H193.625L195.043 54.5469C196.905 55.6927 198.924 56.5807 201.102 57.2109C203.279 57.8411 205.628 58.1562 208.148 58.1562C211.042 58.1562 213.477 57.7122 215.453 56.8242C219.549 55.0482 221.598 52.0404 221.598 47.8008C221.598 45.9102 221.139 44.2201 220.223 42.7305C219.306 41.2695 217.788 39.9948 215.668 38.9062C213.577 37.7891 210.712 36.8151 207.074 35.9844C202.892 35.0104 199.268 33.6641 196.203 31.9453C190.159 28.5365 187.137 23.7669 187.137 17.6367C187.137 14.3424 188.01 11.4206 189.758 8.87109C191.477 6.29297 193.883 4.25911 196.977 2.76953C200.07 1.27995 203.68 0.535156 207.805 0.535156C212.188 0.535156 216.055 1.20833 219.406 2.55469C222.786 3.8724 225.565 5.47656 227.742 7.36719V19.8711H221.168L219.75 10.9336C218.461 9.90234 216.857 9.04297 214.938 8.35547C213.018 7.66797 210.641 7.32422 207.805 7.32422C205.456 7.32422 203.336 7.73958 201.445 8.57031C199.612 9.42969 198.18 10.6185 197.148 12.1367C196.117 13.6549 195.602 15.4453 195.602 17.5078C195.602 19.3125 196.074 20.888 197.02 22.2344C198.738 24.7839 203.064 26.918 209.996 28.6367C223.374 31.9596 230.062 38.319 230.062 47.7148C230.062 51.0664 229.16 54.0312 227.355 56.6094C225.551 59.2161 223.001 61.25 219.707 62.7109C216.441 64.1719 212.589 64.9023 208.148 64.9023Z" fill="#6F7C3E"/>
</svg>
