<svg width="339" height="81" viewBox="0 0 339 81" fill="none" xmlns="http://www.w3.org/2000/svg">
<path fill-rule="evenodd" clip-rule="evenodd" d="M40.1354 80.2707C62.3015 80.2707 80.2707 62.3015 80.2707 40.1354C80.2707 17.9692 62.3015 0 40.1354 0C17.9692 0 0 17.9692 0 40.1354C0 62.3015 17.9692 80.2707 40.1354 80.2707ZM40.1353 55.3981C48.5647 55.3981 55.3981 48.5647 55.3981 40.1354C55.3981 31.706 48.5647 24.8726 40.1353 24.8726C31.7059 24.8726 24.8726 31.706 24.8726 40.1354C24.8726 48.5647 31.7059 55.3981 40.1353 55.3981Z" fill="#00ADEE"/>
<path fill-rule="evenodd" clip-rule="evenodd" d="M206.331 80.2707C228.497 80.2707 246.466 62.3015 246.466 40.1354C246.466 17.9692 228.497 0 206.331 0C184.165 0 166.195 17.9692 166.195 40.1354C166.195 62.3015 184.165 80.2707 206.331 80.2707ZM206.331 55.3981C214.76 55.3981 221.593 48.5647 221.593 40.1354C221.593 31.706 214.76 24.8726 206.331 24.8726C197.901 24.8726 191.068 31.706 191.068 40.1354C191.068 48.5647 197.901 55.3981 206.331 55.3981Z" fill="#00ADEE"/>
<rect x="260.032" y="3.39172" width="78.0096" height="30.5255" rx="15.2627" fill="#00ADEE"/>
<rect x="260.032" y="47.4841" width="52.0064" height="30.5255" rx="15.2627" fill="#00ADEE"/>
<path d="M98.225 14.9307C104.264 9.0501 113.927 9.1788 119.808 15.2181L150.835 47.0824C156.715 53.1217 156.586 62.7847 150.547 68.6653C144.508 74.5459 134.845 74.4171 128.964 68.3778L97.9375 36.5135C92.057 30.4742 92.1857 20.8112 98.225 14.9307Z" fill="#00ADEE"/>
</svg>
