<svg width="219" height="52" viewBox="0 0 219 52" fill="none" xmlns="http://www.w3.org/2000/svg">
<path d="M26.002 0C40.3621 0.00015462 52.0029 11.6417 52.0029 26.002C52.0028 40.3621 40.3621 52.0028 26.002 52.0029C11.6417 52.0029 0.00015463 40.3621 0 26.002C0 11.6416 11.6416 0 26.002 0ZM26.002 16.1143C20.541 16.1143 16.1143 20.541 16.1143 26.002C16.1143 31.4629 20.541 35.8896 26.002 35.8896C31.4629 35.8896 35.8896 31.4629 35.8896 26.002C35.8896 20.541 31.4629 16.1143 26.002 16.1143Z" fill="#FE9900"/>
<path d="M133.671 0C148.032 0.00015462 159.672 11.6417 159.672 26.002C159.672 40.3621 148.031 52.0028 133.671 52.0029C119.311 52.0029 107.67 40.3621 107.669 26.002C107.669 11.6416 119.311 0 133.671 0ZM133.671 16.1143C128.21 16.1143 123.784 20.541 123.784 26.002C123.784 31.4629 128.21 35.8896 133.671 35.8896C139.132 35.8896 143.559 31.4629 143.559 26.002C143.559 20.5411 139.132 16.1143 133.671 16.1143Z" fill="#FE9900"/>
<rect x="168.461" y="2.19727" width="50.5385" height="19.7759" rx="9.88796" fill="#FE9900"/>
<rect x="168.461" y="30.7627" width="33.6923" height="19.7759" rx="9.88796" fill="#FE9900"/>
<path d="M63.6349 9.67301C67.5475 5.86329 73.8076 5.94667 77.6173 9.85924L97.7179 30.5025C101.528 34.4151 101.444 40.6752 97.5317 44.4849V44.4849C93.6191 48.2947 87.359 48.2113 83.5493 44.2987L63.4487 23.6555C59.6389 19.7429 59.7223 13.4827 63.6349 9.67301V9.67301Z" fill="#FE9900"/>
</svg>
