<svg width="21" height="19" viewBox="0 0 21 19" fill="none" xmlns="http://www.w3.org/2000/svg">
<path d="M1.646 0.125C0.783048 0.125 0.0834961 0.824552 0.0834961 1.6875C0.0834961 2.36782 0.518288 2.94659 1.12516 3.16109V10.8021C1.12516 12.9595 2.87405 14.7083 5.03141 14.7083H9.71891V17.3125H6.07308C5.64161 17.3125 5.29183 17.6623 5.29183 18.0938C5.29183 18.5252 5.64161 18.875 6.07308 18.875H14.9272C15.3587 18.875 15.7085 18.5252 15.7085 18.0938C15.7085 17.6623 15.3587 17.3125 14.9272 17.3125H11.2814V14.7083H15.9689C18.1263 14.7083 19.8752 12.9595 19.8752 10.8021V3.16109C20.482 2.94659 20.9168 2.36782 20.9168 1.6875C20.9168 0.824552 20.2172 0.125 19.3543 0.125H1.646ZM2.68766 3.25H18.3127V10.8021C18.3127 12.0965 17.2633 13.1458 15.9689 13.1458H5.03141C3.737 13.1458 2.68766 12.0965 2.68766 10.8021V3.25Z" fill="#7B99B3"/>
</svg>
