<svg width="156" height="51" viewBox="0 0 156 51" fill="none" xmlns="http://www.w3.org/2000/svg">
<path d="M0 0H7V7H0V0Z" fill="white"/>
<path d="M7 0V7H0V0H7ZM1 6H6V1H1V6Z" fill="#4A4A4A"/>
<path d="M0 44H7V51H0V44Z" fill="white"/>
<path d="M7 44V51H0V44H7ZM1 50H6V45H1V50Z" fill="#4A4A4A"/>
<path d="M149 0H156V7H149V0Z" fill="white"/>
<path d="M156 0V7H149V0H156ZM150 6H155V1H150V6Z" fill="#4A4A4A"/>
<path d="M149 44H156V51H149V44Z" fill="white"/>
<path d="M156 44V51H149V44H156ZM150 50H155V45H150V50Z" fill="#4A4A4A"/>
<path d="M4 45L3 45L3 7L4 7L4 45Z" fill="#4A4A4A"/>
<path d="M153 45L152 45L152 7L153 7L153 45Z" fill="#4A4A4A"/>
<path d="M149 3V4L7 4V3L149 3Z" fill="#4A4A4A"/>
<path d="M149 47V48L7 48V47L149 47Z" fill="#4A4A4A"/>
<path d="M141.416 17.05L135.916 26.818V33.0661H134.09V26.818L128.568 17.05H130.702L134.992 24.75L139.304 17.05H141.416Z" fill="black"/>
<path d="M126.724 17.05V18.678H122.038V33.0661H120.19V18.678H115.504V17.05H126.724Z" fill="black"/>
<path d="M110.337 17.05H112.185V33.0661H110.337V17.05Z" fill="black"/>
<path d="M107.386 17.05L101.666 33.0661H99.6198L93.5918 17.05H95.5498L100.632 30.514L105.428 17.05H107.386Z" fill="black"/>
<path d="M88.7881 17.05H90.6361V33.0661H88.7881V17.05Z" fill="black"/>
<path d="M85.6458 17.05V18.678H80.9598V33.0661H79.1118V18.678H74.4258V17.05H85.6458Z" fill="black"/>
<path d="M67.6402 17.05L73.6682 33.0661H71.7102L70.0162 28.534H63.0422L61.2822 33.0661H59.3242L65.4622 17.05H67.6402ZM63.6362 26.928H69.4002L66.5622 19.382L63.6362 26.928Z" fill="black"/>
<path d="M56.9847 17.05V18.678H48.7787V24.002H55.8627V25.63H48.7787V31.438H56.9847V33.0661H46.9307V17.05H56.9847Z" fill="black"/>
<path d="M37.8931 25.014C39.7851 25.014 41.1051 23.716 41.1051 21.824C41.1051 19.932 39.7851 18.678 37.8931 18.678H34.1751V25.014H37.8931ZM43.6791 33.0661H41.4791L37.1011 26.642H34.1751V33.0661H32.3271V17.05H37.9591C40.8851 17.05 42.9311 19.03 42.9311 21.846C42.9531 24.024 41.5231 25.872 39.1911 26.466L43.6791 33.0661Z" fill="black"/>
<path d="M23.5699 33.242C18.9279 33.242 15.6719 29.854 15.6719 25.058C15.6719 20.24 18.9279 16.874 23.5699 16.874C25.7699 16.874 27.7279 17.82 29.1579 19.272L27.9259 20.372C26.8479 19.206 25.2419 18.502 23.5699 18.502C20.0059 18.502 17.5419 21.186 17.5419 25.058C17.5419 28.93 20.0059 31.614 23.5699 31.614C25.2859 31.614 26.8039 30.888 27.8599 29.766L29.1579 30.844C27.7279 32.296 25.7919 33.242 23.5699 33.242Z" fill="black"/>
</svg>
