<svg width="152" height="101" viewBox="0 0 152 101" fill="none" xmlns="http://www.w3.org/2000/svg">
<path d="M148.388 32.2037C144.572 49.4884 134.044 64.5494 119.123 74.0727C104.202 83.5957 86.1095 86.8014 68.825 82.9847C51.5403 79.168 36.4791 68.6415 26.9558 53.7205C17.4325 38.7995 14.2272 20.7061 18.0439 3.42139L51.7162 10.8568C49.8714 19.2111 51.4208 27.9562 56.0237 35.168C60.6266 42.3797 67.9062 47.4677 76.2604 49.3125C84.6144 51.1571 93.359 49.6075 100.571 45.0048C107.783 40.4019 112.871 33.1226 114.716 24.7683L148.388 32.2037Z" fill="#E0BDFF"/>
<path d="M15.5244 0L20.2655 1.04692L19.2186 5.78803L14.4775 4.74111L15.5244 0Z" fill="white"/>
<path d="M20.2655 1.04692L19.2186 5.78803L14.4775 4.74111L15.5244 0L20.2655 1.04692ZM15.6696 3.98028L18.4578 4.59597L19.0735 1.80775L16.2852 1.19206L15.6696 3.98028Z" fill="#4A4A4A"/>
<path d="M1.04688 65.5625L5.78798 66.6094L4.74106 71.3505L-4.49881e-05 70.3036L1.04688 65.5625Z" fill="white"/>
<path d="M5.78798 66.6094L4.74106 71.3505L-4.49881e-05 70.3036L1.04688 65.5625L5.78798 66.6094ZM1.19202 69.5428L3.98023 70.1585L4.59592 67.3703L1.80771 66.7546L1.19202 69.5428Z" fill="#4A4A4A"/>
<path d="M146.649 28.9548L151.391 30.0018L150.344 34.7429L145.602 33.6959L146.649 28.9548Z" fill="white"/>
<path d="M151.391 30.0018L150.344 34.7429L145.602 33.6959L146.649 28.9548L151.391 30.0018ZM146.795 32.9351L149.583 33.5508L150.198 30.7626L147.41 30.1469L146.795 32.9351Z" fill="#4A4A4A"/>
<path d="M132.173 94.5176L136.914 95.5645L135.867 100.306L131.126 99.2587L132.173 94.5176Z" fill="white"/>
<path d="M136.914 95.5645L135.867 100.306L131.126 99.2587L132.173 94.5176L136.914 95.5645ZM132.318 98.4979L135.106 99.1135L135.722 96.3253L132.934 95.7096L132.318 98.4979Z" fill="#4A4A4A"/>
<path d="M4.11835 66.3015L3.14187 66.0859L16.585 5.20674L17.5615 5.42236L4.11835 66.3015Z" fill="#4A4A4A"/>
<path d="M135.243 95.2563L134.267 95.0407L147.71 34.1616L148.687 34.3772L135.243 95.2563Z" fill="#4A4A4A"/>
<path d="M146.342 30.6253L146.126 31.6017L19.6838 3.68107L19.8994 2.70459L146.342 30.6253Z" fill="#4A4A4A"/>
<path d="M131.865 96.1878L131.65 97.1642L5.20723 69.2436L5.42285 68.2671L131.865 96.1878Z" fill="#4A4A4A"/>
</svg>
