<svg width="104" height="46" viewBox="0 0 104 46" fill="none" xmlns="http://www.w3.org/2000/svg">
<path d="M0 0H7V7H0V0Z" fill="white"/>
<path d="M7 0V7H0V0H7ZM1 6H6V1H1V6Z" fill="#4A4A4A"/>
<path d="M0 39H7V46H0V39Z" fill="white"/>
<path d="M7 39V46H0V39H7ZM1 45H6V40H1V45Z" fill="#4A4A4A"/>
<path d="M97 0H104V7H97V0Z" fill="white"/>
<path d="M104 0V7H97V0H104ZM98 6H103V1H98V6Z" fill="#4A4A4A"/>
<path d="M97 39H104V46H97V39Z" fill="white"/>
<path d="M104 39V46H97V39H104ZM98 45H103V40H98V45Z" fill="#4A4A4A"/>
<path d="M4 40L3 40L3 6L4 6L4 40Z" fill="#4A4A4A"/>
<path d="M101 40L100 40L100 6L101 6L101 40Z" fill="#4A4A4A"/>
<path d="M97 3V4L7 4V3L97 3Z" fill="#4A4A4A"/>
<path d="M97 42V43L7 43V42L97 42Z" fill="#4A4A4A"/>
<path d="M85.8871 25.375C85.8871 23.5 84.7871 22.275 83.1371 22.275C81.2871 22.275 79.9871 23.7 79.9871 25.375V32.0751H77.9121V20.425H79.9871V22.125C80.7871 21.125 82.0871 20.425 83.2371 20.425C85.7871 20.425 87.9621 22.175 87.9621 25.225V32.0751H85.8871V25.375Z" fill="black"/>
<path d="M68.7299 30.35C70.7299 30.35 72.2549 28.525 72.2549 26.3C72.2549 24.125 70.7049 22.25 68.7299 22.25C66.6549 22.25 65.2049 23.925 65.2049 26.3C65.2049 28.725 66.6549 30.35 68.7299 30.35ZM74.3549 31.325C74.3549 34.7 72.1049 37.4 68.6049 37.4C66.7049 37.4 64.9549 36.55 63.7799 34.7L65.4799 33.625C66.3049 34.95 67.3299 35.525 68.6049 35.525C70.9049 35.525 72.2549 33.675 72.2549 31.375V30.125C71.4049 31.375 69.9549 32.2 68.6549 32.2C65.4299 32.2 63.1299 29.75 63.1299 26.325C63.1299 22.9 65.4299 20.4 68.6549 20.4C70.1049 20.4 71.4799 21.175 72.2549 22.4V20.4H74.3549V31.325Z" fill="black"/>
<path d="M57.7729 20.4H59.8479V32.075H57.7729V20.4ZM58.8229 14.625C59.5479 14.625 60.0729 15.15 60.0729 15.875C60.0729 16.625 59.5479 17.15 58.8229 17.15C58.0729 17.15 57.5479 16.625 57.5479 15.875C57.5479 15.15 58.0729 14.625 58.8229 14.625Z" fill="black"/>
<path d="M47.4221 28.35C48.0721 29.7501 49.4471 30.35 50.3221 30.35C51.7221 30.35 52.7221 29.75 52.7221 28.75C52.7221 27.8 51.4221 27.425 50.1221 26.975C48.5221 26.425 46.2721 25.725 46.2721 23.5C46.2721 21.525 48.0971 20.3 50.4221 20.3C51.7971 20.3 53.9971 21.1 54.5471 23.175L52.7221 23.8C52.3471 22.425 51.0971 22.15 50.4221 22.15C49.2221 22.15 48.3471 22.65 48.3471 23.5C48.3471 24.45 49.5471 24.775 50.9471 25.25C52.6221 25.825 54.7971 26.525 54.7971 28.75C54.7971 30.8251 52.8971 32.175 50.3221 32.175C48.5471 32.175 46.6971 31.175 45.7471 29.35L47.4221 28.35Z" fill="black"/>
<path d="M38.0408 32.175C34.7658 32.175 32.4658 29.725 32.4658 26.3C32.4658 22.85 34.7658 20.425 38.0408 20.425C41.6408 20.425 42.7408 23.325 42.8408 23.6C43.5408 25.4 43.3158 27.1251 43.3158 27.2001H34.5658C34.8658 29.05 36.3158 30.35 38.0408 30.35C40.3408 30.35 41.1908 28.9 41.3658 28.625L43.0158 29.475C42.4408 30.7751 40.7908 32.175 38.0408 32.175ZM41.2908 25.4C41.0658 23.625 40.1908 22.25 38.0408 22.25C36.2658 22.25 34.8658 23.55 34.5658 25.425L41.2908 25.4Z" fill="black"/>
<path d="M21.0504 30.225C25.2004 30.225 28.0754 27.25 28.0754 22.975C28.0754 18.7 25.2004 15.725 21.0504 15.725H18.2504V30.225H21.0504ZM21.0504 13.875C26.3754 13.875 30.1254 17.625 30.1254 22.975C30.1254 28.325 26.3754 32.075 21.0504 32.075H16.1504V13.875H21.0504Z" fill="black"/>
</svg>
