<svg width="198" height="45" viewBox="0 0 198 45" fill="none" xmlns="http://www.w3.org/2000/svg">
<path d="M0 0H7V7H0V0Z" fill="white"/>
<path d="M7 0V7H0V0H7ZM1 6H6V1H1V6Z" fill="#4A4A4A"/>
<path d="M0 38H7V45H0V38Z" fill="white"/>
<path d="M7 38V45H0V38H7ZM1 44H6V39H1V44Z" fill="#4A4A4A"/>
<path d="M191 0H198V7H191V0Z" fill="white"/>
<path d="M198 0V7H191V0H198ZM192 6H197V1H192V6Z" fill="#4A4A4A"/>
<path d="M191 38H198V45H191V38Z" fill="white"/>
<path d="M198 38V45H191V38H198ZM192 44H197V39H192V44Z" fill="#4A4A4A"/>
<path d="M4 39L3 39L3 7L4 7L4 39Z" fill="#4A4A4A"/>
<path d="M195 39L194 39L194 7L195 7L195 39Z" fill="#4A4A4A"/>
<path d="M191 3V4L7 4V3L191 3Z" fill="#4A4A4A"/>
<path d="M191 41V42L7 42V41L191 41Z" fill="#4A4A4A"/>
<path d="M185.024 24.95C185.024 23.454 184.144 22.442 182.868 22.442C181.394 22.442 180.382 23.41 180.382 24.774V31.066H178.534V24.95C178.534 23.454 177.676 22.442 176.422 22.442C174.926 22.442 173.892 23.696 173.892 25.148V31.066H172.066V20.814H173.892V22.288C174.508 21.408 175.52 20.814 176.488 20.814C177.764 20.814 179.018 21.584 179.612 22.706C180.294 21.584 181.636 20.814 182.912 20.814C185.222 20.814 186.872 22.464 186.872 24.818V31.066H185.024V24.95Z" fill="black"/>
<path d="M164.519 29.57C166.345 29.57 167.599 28.118 167.599 26.006C167.599 23.894 166.345 22.42 164.519 22.42C162.715 22.42 161.461 23.872 161.461 26.006C161.461 28.14 162.693 29.57 164.519 29.57ZM164.519 20.792C167.401 20.792 169.447 22.97 169.447 26.006C169.447 29.02 167.401 31.198 164.519 31.198C161.659 31.198 159.635 29.02 159.635 26.006C159.635 22.97 161.659 20.792 164.519 20.792Z" fill="black"/>
<path d="M154.029 29.416C154.931 29.416 155.987 28.976 156.581 28.294L157.901 29.526C156.999 30.494 155.393 31.176 154.117 31.176C151.059 31.176 148.903 28.998 148.903 25.984C148.903 22.948 151.059 20.792 154.117 20.792C155.415 20.792 156.977 21.496 157.901 22.464L156.581 23.674C155.987 22.992 154.931 22.552 154.029 22.552C152.093 22.552 150.729 23.938 150.729 25.984C150.729 28.03 152.093 29.416 154.029 29.416Z" fill="black"/>
<path d="M144.732 28.9761C145.414 28.9761 145.898 29.4601 145.898 30.1641C145.898 30.8681 145.414 31.3741 144.732 31.3741C144.028 31.3741 143.522 30.8681 143.522 30.1641C143.522 29.4601 144.028 28.9761 144.732 28.9761Z" fill="black"/>
<path d="M136.052 31.066V20.814H137.878V22.508C138.56 21.408 139.946 20.66 141.31 20.726V22.486C139.44 22.42 137.878 24.048 137.878 25.852V31.066H136.052Z" fill="black"/>
<path d="M128.963 31.154C126.081 31.154 124.057 28.998 124.057 25.984C124.057 22.948 126.081 20.814 128.963 20.814C132.131 20.814 133.099 23.366 133.187 23.608C133.803 25.192 133.605 26.71 133.605 26.776H125.905C126.169 28.404 127.445 29.548 128.963 29.548C130.987 29.548 131.735 28.272 131.889 28.03L133.341 28.778C132.835 29.922 131.383 31.154 128.963 31.154ZM131.823 25.192C131.625 23.63 130.855 22.42 128.963 22.42C127.401 22.42 126.169 23.564 125.905 25.214L131.823 25.192Z" fill="black"/>
<path d="M123.088 20.814L118.798 31.066H117.126L112.858 20.814H114.86L117.962 28.58L121.064 20.814H123.088Z" fill="black"/>
<path d="M105.565 31.198C102.727 31.198 100.703 29.042 100.703 26.028C100.703 22.992 102.727 20.836 105.565 20.836C106.665 20.836 107.875 21.386 108.755 22.574V20.814H110.581V31.066H108.755V29.416C107.853 30.714 106.665 31.198 105.565 31.198ZM105.631 29.592C107.281 29.592 108.755 28.096 108.777 26.028C108.755 23.96 107.281 22.442 105.631 22.442C103.805 22.442 102.529 23.894 102.529 26.028C102.529 28.118 103.805 29.592 105.631 29.592Z" fill="black"/>
<path d="M96.3871 25.17C96.3871 23.52 95.4191 22.442 93.9671 22.442C92.3391 22.442 91.1951 23.696 91.1951 25.17V31.066H89.3691V20.814H91.1951V22.31C91.8991 21.43 93.0431 20.814 94.0551 20.814C96.2991 20.814 98.2131 22.354 98.2131 25.038V31.066H96.3871V25.17Z" fill="black"/>
<path d="M75.8393 26.9741C77.4453 26.9741 78.8313 25.5221 78.8313 23.6301C78.8313 21.7161 77.4453 20.3081 75.8393 20.3081C74.0793 20.3081 72.8253 21.6941 72.8253 23.6301C72.8253 25.6101 74.0793 26.9741 75.8393 26.9741ZM76.2573 13.4661C81.6253 13.4661 86.0253 17.8661 86.0253 23.2781C86.0253 24.9061 85.4093 26.0941 84.6173 26.7321C83.8253 27.4141 82.8133 27.6121 82.3073 27.6121C81.2953 27.6121 80.2393 27.1281 79.6673 26.4461C78.7873 27.7661 77.4233 28.6461 75.8613 28.6461C73.1113 28.6461 71.1753 26.5561 71.1753 23.6301C71.1753 20.7041 73.1113 18.6581 75.8613 18.6581C76.9393 18.6581 77.9513 19.0761 78.8093 19.8461V18.7681H80.5033V24.3341C80.5033 24.9941 81.0753 25.8961 82.2633 25.8961C82.5713 25.8961 83.0333 25.8081 83.4293 25.4781C83.8253 25.1701 84.2873 24.5101 84.2873 23.2781C84.2873 18.8341 80.6573 15.2481 76.2573 15.2481C71.7913 15.2481 68.2053 18.8561 68.2053 23.2781C68.2053 27.7001 71.7913 31.3081 76.2573 31.3081C77.7533 31.3081 79.1613 30.8681 80.3273 30.1861L81.2293 31.7041C79.7773 32.5621 78.0833 33.0681 76.2573 33.0681C70.8453 33.0681 66.4453 28.6901 66.4453 23.2781C66.4453 17.8661 70.8453 13.4661 76.2573 13.4661Z" fill="black"/>
<path d="M63.77 20.814L59.48 31.066H57.808L53.54 20.814H55.542L58.644 28.58L61.746 20.814H63.77Z" fill="black"/>
<path d="M48.1543 29.416C49.0563 29.416 50.1123 28.976 50.7063 28.294L52.0263 29.526C51.1243 30.494 49.5183 31.176 48.2423 31.176C45.1843 31.176 43.0283 28.998 43.0283 25.984C43.0283 22.948 45.1843 20.792 48.2423 20.792C49.5403 20.792 51.1023 21.496 52.0263 22.464L50.7063 23.674C50.1123 22.992 49.0563 22.552 48.1543 22.552C46.2183 22.552 44.8543 23.938 44.8543 25.984C44.8543 28.03 46.2183 29.416 48.1543 29.416Z" fill="black"/>
<path d="M41.4568 20.814V22.574L35.9788 29.46H41.4568V31.066H33.7568V29.328L39.2568 22.42H33.7568V20.814H41.4568Z" fill="black"/>
<path d="M25.8581 31.198C23.0201 31.198 20.9961 29.042 20.9961 26.028C20.9961 22.992 23.0201 20.836 25.8581 20.836C26.9581 20.836 28.1681 21.386 29.0481 22.574V20.814H30.8741V31.066H29.0481V29.416C28.1461 30.714 26.9581 31.198 25.8581 31.198ZM25.9241 29.592C27.5741 29.592 29.0481 28.096 29.0701 26.028C29.0481 23.96 27.5741 22.442 25.9241 22.442C24.0981 22.442 22.8221 23.894 22.8221 26.028C22.8221 28.118 24.0981 29.592 25.9241 29.592Z" fill="black"/>
<path d="M19.8022 20.814L15.9302 25.94L19.8022 31.066H17.4922L14.9182 27.524L12.3662 31.066H10.0562L13.8842 25.94L10.0342 20.814H12.3442L14.9182 24.4L17.4922 20.814H19.8022Z" fill="black"/>
</svg>
