<svg width="124" height="124" viewBox="0 0 124 124" fill="none" xmlns="http://www.w3.org/2000/svg">
<path d="M65.9406 11.2482C73.7629 7.13765 83.4368 10.1468 87.5474 17.9691L91.0756 24.6833C96.0451 20.5 102.977 18.8597 109.64 20.9322C120.034 24.1654 125.84 35.2127 122.607 45.6072C120.534 52.2703 115.25 57.047 108.986 58.7667L112.756 65.9406C116.866 73.7629 113.857 83.4369 106.035 87.5474L98.6549 91.4249C102.931 96.4042 104.628 103.407 102.535 110.137C99.3017 120.531 88.2536 126.337 77.8591 123.104C71.1293 121.01 66.3247 115.641 64.6497 109.294L58.0635 112.756C50.2413 116.867 40.5673 113.857 36.4567 106.035L33.1598 99.761C28.1959 103.896 21.3027 105.511 14.6743 103.45C4.27971 100.216 -1.52594 89.1684 1.70733 78.7738C3.76914 72.1455 9.0087 67.3833 15.23 65.6409L11.2481 58.0636C7.1376 50.2413 10.1467 40.5673 17.969 36.4568L25.3449 32.58C21.3011 27.6278 19.7383 20.8064 21.7794 14.2444C25.0128 3.84997 36.0606 -1.9549 46.4551 1.27834C53.017 3.3195 57.7488 8.47499 59.5335 14.6143L65.9406 11.2482Z" fill="#E0E0E0"/>
</svg>
