<svg width="153" height="119" viewBox="0 0 153 119" fill="none" xmlns="http://www.w3.org/2000/svg">
<path d="M144.296 18.0872C143.521 16.1601 141.141 14.6894 136.864 13.9846C132.657 13.2911 126.944 13.401 120.097 14.3011C106.418 16.0992 88.4402 21.0202 69.4261 28.655C50.4121 36.2898 34.0243 45.1675 22.9012 53.3284C17.3336 57.4133 13.1318 61.2844 10.573 64.6948C7.97228 68.1611 7.27063 70.8694 8.0448 72.7965C8.81898 74.7235 11.1995 76.1942 15.4761 76.8991C19.6835 77.5926 25.3963 77.4826 32.2435 76.5825C45.9228 74.7844 63.9001 69.8634 82.9142 62.2286L83.287 63.1565C45.1499 78.4699 11.0473 82.9527 7.11681 73.1691C3.18636 63.3855 30.9163 43.0404 69.0533 27.7271C107.19 12.4138 141.293 7.931 145.223 17.7146C149.154 27.4981 121.424 47.8432 83.287 63.1565L82.9142 62.2286C101.928 54.5938 118.316 45.7161 129.439 37.5552C135.007 33.4703 139.209 29.5992 141.767 26.1889C144.368 22.7225 145.07 20.0142 144.296 18.0872Z" fill="#7EA3D5"/>
<path d="M141.904 49.8983C141.307 48.4106 139.444 47.2199 135.957 46.6416C132.538 46.0747 127.883 46.1581 122.288 46.8905C111.113 48.3534 96.418 52.3712 80.8711 58.6137C65.3242 64.8564 51.932 72.1165 42.8493 78.7879C38.3017 82.1282 34.8814 85.2872 32.8047 88.0608C30.6867 90.8896 30.1661 93.0374 30.7637 94.5251C31.3614 96.0129 33.2235 97.2047 36.7106 97.7831C40.1294 98.35 44.7851 98.2663 50.3804 97.5338C61.5556 96.0709 76.2501 92.0523 91.797 85.8097L92.1698 86.7376L90.7098 87.3186C60.1007 99.3783 33.0084 102.795 29.8357 94.8977C26.6131 86.8751 49.2955 70.2148 80.4983 57.6858L81.9583 57.1049C112.567 45.0453 139.659 41.6288 142.832 49.5257L142.903 49.7151C145.701 57.8079 123.129 74.3062 92.1698 86.7376L91.797 85.8097C107.344 79.5671 120.736 72.3078 129.819 65.6364C134.367 62.2964 137.786 59.1374 139.863 56.3639C141.981 53.5348 142.502 51.3861 141.904 49.8983Z" fill="#7EA3D5"/>
<path d="M138.32 75.0008C137.937 74.0475 136.709 73.1973 134.197 72.7709C131.751 72.3558 128.401 72.404 124.351 72.9256C116.267 73.967 105.625 76.8635 94.3618 81.3862C83.0983 85.9089 73.4093 91.1757 66.8504 96.0141C63.5648 98.4379 61.1116 100.72 59.6324 102.711C58.1135 104.756 57.8151 106.219 58.1979 107.173C58.581 108.126 59.8089 108.977 62.3209 109.403C64.7669 109.819 68.1176 109.77 72.1673 109.249C80.2516 108.207 90.893 105.311 102.156 100.788L102.529 101.716L100.414 102.55C78.6425 110.961 59.5545 113.232 57.2699 107.545C54.9125 101.675 71.352 89.5478 93.989 80.4583L96.1033 79.6251C117.875 71.2137 136.963 68.942 139.248 74.6282L139.345 74.9083C141.091 80.8769 124.813 92.7683 102.529 101.716L102.156 100.788C113.42 96.2654 123.109 90.9987 129.668 86.1602C132.954 83.7364 135.407 81.4543 136.886 79.463C138.405 77.418 138.703 75.9544 138.32 75.0008Z" fill="#7EA3D5"/>
</svg>
