<svg width="71" height="75" viewBox="0 0 71 75" fill="none" xmlns="http://www.w3.org/2000/svg">
<path d="M65.7627 35.1276C68.4779 51.6979 57.246 67.332 40.6757 70.0471C24.1053 72.7623 8.47128 61.5305 5.7561 44.9601C3.04093 28.3897 14.2728 12.7557 30.8431 10.0405C47.4135 7.32535 63.0475 18.5572 65.7627 35.1276Z" fill="#FF7111"/>
<path d="M24.6521 24.2975C26.6548 33.4274 26.0464 41.3183 23.2932 41.9222C20.54 42.5261 16.6846 35.6144 14.6819 26.4845C12.6792 17.3545 13.2876 9.46367 16.0408 8.85974C18.794 8.25582 22.6494 15.1675 24.6521 24.2975Z" fill="#F2F2F2"/>
<path d="M24.5999 25.04C25.4695 29.5838 24.8819 33.5146 23.2873 33.8198C21.6928 34.125 19.6952 30.6889 18.8256 26.1452C17.956 21.6014 18.5436 17.6706 20.1381 17.3654C21.7326 17.0602 23.7302 20.4963 24.5999 25.04Z" fill="black"/>
<path d="M46.876 19.2162C49.4226 28.2235 49.2852 36.1479 46.5689 36.9158C43.8527 37.6838 39.5864 31.0045 37.0398 21.9972C34.4931 12.9898 34.6306 5.06544 37.3468 4.2975C40.0631 3.52955 44.3294 10.2089 46.876 19.2162Z" fill="#F2F2F2"/>
<path d="M47.3466 21.3041C48.4394 25.8062 48.0446 29.7668 46.4647 30.1503C44.8848 30.5338 42.7181 27.195 41.6253 22.6929C40.5324 18.1908 40.9272 14.2302 42.5071 13.8467C44.0871 13.4632 46.2537 16.802 47.3466 21.3041Z" fill="black"/>
</svg>
