<svg width="183" height="45" viewBox="0 0 183 45" fill="none" xmlns="http://www.w3.org/2000/svg">
<path d="M0 0H7V7H0V0Z" fill="white"/>
<path d="M7 0V7H0V0H7ZM1 6H6V1H1V6Z" fill="#4A4A4A"/>
<path d="M0 38H7V45H0V38Z" fill="white"/>
<path d="M7 38V45H0V38H7ZM1 44H6V39H1V44Z" fill="#4A4A4A"/>
<path d="M176 0H183V7H176V0Z" fill="white"/>
<path d="M183 0V7H176V0H183ZM177 6H182V1H177V6Z" fill="#4A4A4A"/>
<path d="M176 38H183V45H176V38Z" fill="white"/>
<path d="M183 38V45H176V38H183ZM177 44H182V39H177V44Z" fill="#4A4A4A"/>
<path d="M4 39L3 39L3 7L4 7L4 39Z" fill="#4A4A4A"/>
<path d="M180 39L179 39L179 7L180 7L180 39Z" fill="#4A4A4A"/>
<path d="M176 3V4L7 4V3L176 3Z" fill="#4A4A4A"/>
<path d="M176 41V42L7 42V41L176 41Z" fill="#4A4A4A"/>
<path d="M170.24 15.116V31.022H168.414V17.14L165.818 18.812L164.916 17.36L168.414 15.116H170.24Z" fill="black"/>
<path d="M160.49 15.094V25.06H162.734V26.666H160.49V31.022H158.664V26.666H151.734L151.514 25.06L158.73 15.094H160.49ZM153.736 25.06H158.664V18.24L153.736 25.06Z" fill="black"/>
<path d="M139.272 29.416C142.44 26.358 147.082 22.75 147.082 19.912C147.082 17.954 145.828 16.568 144.046 16.568C142.726 16.568 141.384 17.536 140.768 18.944L139.118 18.218C139.976 16.282 142.022 14.918 144.046 14.918C146.906 14.918 148.908 16.986 148.908 19.912C148.908 23.278 144.838 26.644 141.802 29.416H149.172V31.044H139.492L139.272 29.416Z" fill="black"/>
<path d="M130.413 31.022H128.411L134.769 16.7H127.179V15.072H136.551L136.771 16.7L130.413 31.022Z" fill="black"/>
<path d="M114.805 21.98H124.199V23.806H114.805V21.98Z" fill="black"/>
<path d="M106.402 29.5479C108.712 29.5479 110.318 26.8859 110.318 23.0579C110.318 19.2299 108.712 16.5679 106.402 16.5679C104.07 16.5679 102.442 19.2299 102.442 23.0579C102.442 26.8859 104.07 29.5479 106.402 29.5479ZM106.402 31.1759C102.992 31.1759 100.616 27.8099 100.616 23.0579C100.616 18.3059 102.992 14.9619 106.402 14.9619C109.768 14.9619 112.144 18.3059 112.144 23.0579C112.144 27.8099 109.768 31.1759 106.402 31.1759Z" fill="black"/>
<path d="M92.5663 29.5479C94.8763 29.5479 96.4823 26.8859 96.4823 23.0579C96.4823 19.2299 94.8763 16.5679 92.5663 16.5679C90.2343 16.5679 88.6063 19.2299 88.6063 23.0579C88.6063 26.8859 90.2343 29.5479 92.5663 29.5479ZM92.5663 31.1759C89.1563 31.1759 86.7803 27.8099 86.7803 23.0579C86.7803 18.3059 89.1563 14.9619 92.5663 14.9619C95.9323 14.9619 98.3083 18.3059 98.3083 23.0579C98.3083 27.8099 95.9323 31.1759 92.5663 31.1759Z" fill="black"/>
<path d="M79.0852 29.57C81.1752 29.57 82.6272 28.074 82.6272 25.94C82.6272 23.784 81.1752 22.288 79.0852 22.288C77.0612 22.288 75.6092 23.784 75.6092 25.94C75.6092 28.074 77.0612 29.57 79.0852 29.57ZM73.7832 25.94C73.7832 24.796 74.1572 23.784 74.6192 22.948L79.0852 15.072H81.1972L77.9192 20.792C78.3152 20.726 78.7112 20.66 79.1292 20.66C82.2752 20.66 84.4532 22.838 84.4532 25.94C84.4532 29.02 82.2532 31.198 79.1292 31.198C75.9832 31.198 73.7832 29.02 73.7832 25.94Z" fill="black"/>
<path d="M66.1317 16.546C64.0637 16.546 62.5897 18.042 62.5897 20.176C62.5897 22.31 64.0637 23.828 66.1317 23.828C68.1777 23.828 69.6077 22.31 69.6077 20.176C69.6077 18.042 68.1777 16.546 66.1317 16.546ZM71.4337 20.176C71.4337 21.298 71.0597 22.332 70.5977 23.146L66.1317 31.022H64.0197L67.2977 25.324C66.9237 25.39 66.5057 25.456 66.0877 25.456C62.9637 25.434 60.7637 23.278 60.7637 20.176C60.7637 17.096 62.9637 14.918 66.1097 14.918C69.2337 14.918 71.4337 17.096 71.4337 20.176Z" fill="black"/>
<path d="M48.6973 21.98H58.0913V23.806H48.6973V21.98Z" fill="black"/>
<path d="M40.2948 29.5479C42.6048 29.5479 44.2108 26.8859 44.2108 23.0579C44.2108 19.2299 42.6048 16.5679 40.2948 16.5679C37.9628 16.5679 36.3348 19.2299 36.3348 23.0579C36.3348 26.8859 37.9628 29.5479 40.2948 29.5479ZM40.2948 31.1759C36.8848 31.1759 34.5088 27.8099 34.5088 23.0579C34.5088 18.3059 36.8848 14.9619 40.2948 14.9619C43.6608 14.9619 46.0368 18.3059 46.0368 23.0579C46.0368 27.8099 43.6608 31.1759 40.2948 31.1759Z" fill="black"/>
<path d="M31.1717 15.116V31.022H29.3457V17.14L26.7497 18.812L25.8477 17.36L29.3457 15.116H31.1717Z" fill="black"/>
<path d="M17.9296 29.5479C20.2396 29.5479 21.8456 26.8859 21.8456 23.0579C21.8456 19.2299 20.2396 16.5679 17.9296 16.5679C15.5976 16.5679 13.9696 19.2299 13.9696 23.0579C13.9696 26.8859 15.5976 29.5479 17.9296 29.5479ZM17.9296 31.1759C14.5196 31.1759 12.1436 27.8099 12.1436 23.0579C12.1436 18.3059 14.5196 14.9619 17.9296 14.9619C21.2956 14.9619 23.6716 18.3059 23.6716 23.0579C23.6716 27.8099 21.2956 31.1759 17.9296 31.1759Z" fill="black"/>
</svg>
