<svg width="93" height="93" viewBox="0 0 93 93" fill="none" xmlns="http://www.w3.org/2000/svg">
<path d="M49.4904 13.4033C64.2484 7.08326 77.9045 7.2136 84.2817 15.0029C90.6588 22.7922 88.0896 36.2043 78.9808 49.4242C85.3007 64.182 85.1713 77.8372 77.3822 84.2145C69.5927 90.5918 56.1801 88.0229 42.96 78.9135C28.2022 85.2332 14.5476 85.1043 8.17058 77.3151C1.79357 69.5258 4.36167 56.1135 13.4705 42.8937C7.15088 28.1361 7.2809 14.4816 15.0699 8.10442C22.8591 1.72745 36.2709 4.29492 49.4904 13.4033Z" fill="#DF98CD"/>
<path d="M8.43555 -0.000976562L14.48 0.60157L13.8774 6.64601L7.833 6.04346L8.43555 -0.000976562Z" fill="white"/>
<path d="M14.48 0.60157L13.8774 6.64601L7.833 6.04346L8.43555 -0.000976562L14.48 0.60157ZM8.9273 5.14756L12.9815 5.55172L13.3857 1.49747L9.33145 1.09332L8.9273 5.14756Z" fill="#4A4A4A"/>
<path d="M0.602539 78.5771L6.64698 79.1797L6.04443 85.2241L-7.07694e-06 84.6216L0.602539 78.5771Z" fill="white"/>
<path d="M6.64698 79.1797L6.04443 85.2241L-7.12424e-06 84.6216L0.602539 78.5771L6.64698 79.1797ZM1.09429 83.7257L5.14853 84.1298L5.55269 80.0756L1.49844 79.6714L1.09429 83.7257Z" fill="#4A4A4A"/>
<path d="M86.3418 7.76538L92.3862 8.36793L91.7837 14.4124L85.7393 13.8098L86.3418 7.76538Z" fill="white"/>
<path d="M92.3862 8.36793L91.7837 14.4124L85.7393 13.8098L86.3418 7.76538L92.3862 8.36793ZM86.8335 12.9139L90.8878 13.3181L91.2919 9.26383L87.2377 8.85968L86.8335 12.9139Z" fill="#4A4A4A"/>
<path d="M78.5088 86.3435L84.5532 86.9461L83.9507 92.9905L77.9062 92.3879L78.5088 86.3435Z" fill="white"/>
<path d="M84.5532 86.9461L83.9507 92.9905L77.9062 92.3879L78.5088 86.3435L84.5532 86.9461ZM79.0005 91.492L83.0548 91.8962L83.4589 87.842L79.4047 87.4378L79.0005 91.492Z" fill="#4A4A4A"/>
<path d="M4.28411 78.944L3.28904 78.8448L10.5196 6.31169L11.5146 6.41089L4.28411 78.944Z" fill="#4A4A4A"/>
<path d="M82.1904 86.7098L81.1953 86.6106L88.4258 14.0776L89.4209 14.1768L82.1904 86.7098Z" fill="#4A4A4A"/>
<path d="M86.1057 10.1284L86.0065 11.1235L14.1449 3.95991L14.2441 2.96484L86.1057 10.1284Z" fill="#4A4A4A"/>
<path d="M78.2727 88.7063L78.1735 89.7014L6.31194 82.5378L6.41113 81.5427L78.2727 88.7063Z" fill="#4A4A4A"/>
</svg>
