<svg width="96" height="97" viewBox="0 0 96 97" fill="none" xmlns="http://www.w3.org/2000/svg">
<path d="M12.3076 -0.000244141L18.3181 0.878859L17.439 6.88931L11.4285 6.01021L12.3076 -0.000244141Z" fill="white"/>
<path d="M18.3181 0.878859L17.439 6.88931L11.4285 6.01021L12.3076 -0.000244141L18.3181 0.878859ZM12.5627 5.16543L16.5942 5.75508L17.1838 1.72363L13.1524 1.13398L12.5627 5.16543Z" fill="#4A4A4A"/>
<path d="M0.879883 78.1362L6.89033 79.0153L6.01123 85.0258L0.000780134 84.1467L0.879883 78.1362Z" fill="white"/>
<path d="M6.89033 79.0153L6.01123 85.0258L0.000780065 84.1467L0.879883 78.1362L6.89033 79.0153ZM1.13501 83.3019L5.16646 83.8916L5.7561 79.8601L1.72466 79.2705L1.13501 83.3019Z" fill="#4A4A4A"/>
<path d="M89.7754 11.3308L95.7858 12.2099L94.9067 18.2204L88.8963 17.3413L89.7754 11.3308Z" fill="white"/>
<path d="M95.7858 12.2099L94.9067 18.2204L88.8963 17.3413L89.7754 11.3308L95.7858 12.2099ZM90.0305 16.4965L94.062 17.0861L94.6516 13.0547L90.6202 12.465L90.0305 16.4965Z" fill="#4A4A4A"/>
<path d="M78.3477 89.467L84.3581 90.3461L83.479 96.3566L77.4686 95.4775L78.3477 89.467Z" fill="white"/>
<path d="M84.3581 90.3461L83.479 96.3566L77.4686 95.4775L78.3477 89.467L84.3581 90.3461ZM78.6028 94.6327L82.6342 95.2224L83.2239 91.1909L79.1924 90.6013L78.6028 94.6327Z" fill="#4A4A4A"/>
<path d="M4.54064 78.6713L3.55117 78.5266L14.1004 6.40142L15.0898 6.54614L4.54064 78.6713Z" fill="#4A4A4A"/>
<path d="M82.0084 90.0016L81.0189 89.8569L91.5681 17.7317L92.5576 17.8765L82.0084 90.0016Z" fill="#4A4A4A"/>
<path d="M89.4321 13.6803L89.2874 14.6698L17.8299 4.21823L17.9746 3.22876L89.4321 13.6803Z" fill="#4A4A4A"/>
<path d="M78.0034 91.8168L77.8587 92.8062L6.40118 82.3547L6.5459 81.3652L78.0034 91.8168Z" fill="#4A4A4A"/>
<path d="M53.4185 9.07045L59.7214 38.7617L86.3638 53.304L56.6725 59.607L42.1302 86.2493L35.8273 56.5581L9.18492 42.0157L38.8761 35.7128L53.4185 9.07045Z" fill="#77A2EB"/>
</svg>
