<svg width="108" height="108" viewBox="0 0 108 108" fill="none" xmlns="http://www.w3.org/2000/svg">
<g opacity="0.75">
<path d="M53.2946 54.0548C59.0853 55.3857 65.0814 55.563 70.9406 54.5765C76.7998 53.5901 82.4074 51.4592 87.4431 48.3056C92.4788 45.152 96.844 41.0375 100.29 36.1968C103.735 31.3562 106.194 25.8843 107.524 20.0936L63.4289 9.95931L53.2946 54.0548Z" fill="#03A9F4"/>
<path d="M53.4694 53.2945C52.1386 59.0853 51.9613 65.0814 52.9478 70.9406C53.9342 76.7998 56.0651 82.4074 59.2187 87.4431C62.3723 92.4788 66.4868 96.844 71.3275 100.29C76.1681 103.735 81.64 106.194 87.4307 107.524L97.565 63.4289L53.4694 53.2945Z" fill="#03A9F4"/>
<path d="M53.4696 53.2947C47.7787 51.9868 41.8814 51.8323 36.1145 52.8399C30.3475 53.8476 24.8238 55.9977 19.8587 59.1675C14.8935 62.3373 10.5843 66.4648 7.17694 71.3142C3.76958 76.1636 1.33086 81.64 0 87.4307L43.3353 97.3903L53.4696 53.2947Z" fill="#03A9F4"/>
<path d="M53.4694 53.2947C54.7773 47.6039 54.9516 41.7111 53.9821 35.9529C53.0127 30.1947 50.9185 24.6839 47.8193 19.735C44.7201 14.7861 40.6765 10.4961 35.9193 7.10995C31.1622 3.7238 25.7846 1.30779 20.0937 -0.00012207L10.1342 43.3352L53.4694 53.2947Z" fill="#03A9F4"/>
</g>
</svg>
