<svg width="93" height="94" viewBox="0 0 93 94" fill="none" xmlns="http://www.w3.org/2000/svg">
<path d="M0 8.62476L6.04257 8.00376L6.66357 14.0463L0.620994 14.6673L0 8.62476Z" fill="white"/>
<path d="M6.04257 8.00376L6.66357 14.0463L0.620994 14.6673L0 8.62476L6.04257 8.00376ZM1.51355 13.5703L5.56654 13.1538L5.15002 9.10079L1.09702 9.51731L1.51355 13.5703Z" fill="#4A4A4A"/>
<path d="M8.07324 87.1794L14.1158 86.5584L14.7368 92.601L8.69424 93.222L8.07324 87.1794Z" fill="white"/>
<path d="M14.1158 86.5584L14.7368 92.601L8.69424 93.222L8.07324 87.1794L14.1158 86.5584ZM9.58679 92.125L13.6398 91.7085L13.2233 87.6555L9.17027 88.072L9.58679 92.125Z" fill="#4A4A4A"/>
<path d="M77.8818 0.621094L83.9244 0.000100123L84.5454 6.04267L78.5028 6.66367L77.8818 0.621094Z" fill="white"/>
<path d="M83.9244 0.000100074L84.5454 6.04267L78.5028 6.66367L77.8818 0.621094L83.9244 0.000100074ZM79.3954 5.56664L83.4484 5.15012L83.0319 1.09712L78.9789 1.51365L79.3954 5.56664Z" fill="#4A4A4A"/>
<path d="M85.9551 79.1755L91.9977 78.5545L92.6186 84.5971L86.5761 85.2181L85.9551 79.1755Z" fill="white"/>
<path d="M91.9977 78.5545L92.6186 84.5971L86.5761 85.2181L85.9551 79.1755L91.9977 78.5545ZM87.4686 84.1211L91.5216 83.7046L91.1051 79.6516L87.0521 80.0681L87.4686 84.1211Z" fill="#4A4A4A"/>
<path d="M11.7537 86.8002L10.7589 86.9024L3.307 14.3918L4.30176 14.2896L11.7537 86.8002Z" fill="#4A4A4A"/>
<path d="M89.6355 78.7961L88.6407 78.8983L81.1888 6.38763L82.1836 6.2854L89.6355 78.7961Z" fill="#4A4A4A"/>
<path d="M78.1246 2.9833L78.2268 3.97806L6.38739 11.361L6.28516 10.3662L78.1246 2.9833Z" fill="#4A4A4A"/>
<path d="M86.1978 81.5377L86.3 82.5325L14.4606 89.9154L14.3584 88.9207L86.1978 81.5377Z" fill="#4A4A4A"/>
<path d="M52.2564 33.1172L70.6783 15.8868L57.5539 37.4273L84.8606 42.1517L59.0854 52.3303L76.3168 70.7521L54.7753 57.6278L50.0519 84.9344L39.8724 59.1593L21.4515 76.3906L34.5749 54.8492L7.26925 50.1257L33.0433 39.9463L15.813 21.5253L37.3534 34.6488L42.0779 7.34306L52.2564 33.1172Z" fill="#EBBF77"/>
</svg>
