<svg width="164" height="54" viewBox="0 0 164 54" fill="none" xmlns="http://www.w3.org/2000/svg">
<path d="M0 0H7V7H0V0Z" fill="white"/>
<path d="M7 0V7H0V0H7ZM1 6H6V1H1V6Z" fill="#4A4A4A"/>
<path d="M0 47H7V54H0V47Z" fill="white"/>
<path d="M7 47V54H0V47H7ZM1 53H6V48H1V53Z" fill="#4A4A4A"/>
<path d="M157 0H164V7H157V0Z" fill="white"/>
<path d="M164 0V7H157V0H164ZM158 6H163V1H158V6Z" fill="#4A4A4A"/>
<path d="M157 47H164V54H157V47Z" fill="white"/>
<path d="M164 47V54H157V47H164ZM158 53H163V48H158V53Z" fill="#4A4A4A"/>
<path d="M4 47L3 47L3 7L4 7L4 47Z" fill="#4A4A4A"/>
<path d="M161 47L160 47L160 7L161 7L161 47Z" fill="#4A4A4A"/>
<path d="M157 3V4L7 4V3L157 3Z" fill="#4A4A4A"/>
<path d="M157 50V51L7 51V50L157 50Z" fill="#4A4A4A"/>
<path d="M149.244 29.375C149.244 27.5 148.144 26.275 146.494 26.275C144.644 26.275 143.344 27.7 143.344 29.375V36.0751H141.269V24.425H143.344V26.125C144.144 25.125 145.444 24.425 146.594 24.425C149.144 24.425 151.319 26.175 151.319 29.225V36.0751H149.244V29.375Z" fill="black"/>
<path d="M132.086 34.3499C134.086 34.3499 135.611 32.5249 135.611 30.2999C135.611 28.1249 134.061 26.2499 132.086 26.2499C130.011 26.2499 128.561 27.9249 128.561 30.2999C128.561 32.7249 130.011 34.3499 132.086 34.3499ZM137.711 35.3249C137.711 38.6999 135.461 41.3999 131.961 41.3999C130.061 41.3999 128.311 40.5499 127.136 38.6999L128.836 37.6249C129.661 38.9499 130.686 39.5249 131.961 39.5249C134.261 39.5249 135.611 37.6749 135.611 35.3749V34.1249C134.761 35.3749 133.311 36.1999 132.011 36.1999C128.786 36.1999 126.486 33.7499 126.486 30.3249C126.486 26.8999 128.786 24.3999 132.011 24.3999C133.461 24.3999 134.836 25.1749 135.611 26.3999V24.3999H137.711V35.3249Z" fill="black"/>
<path d="M121.129 24.4H123.204V36.075H121.129V24.4ZM122.179 18.625C122.904 18.625 123.429 19.15 123.429 19.875C123.429 20.625 122.904 21.15 122.179 21.15C121.429 21.15 120.904 20.625 120.904 19.875C120.904 19.15 121.429 18.625 122.179 18.625Z" fill="black"/>
<path d="M110.779 32.35C111.429 33.7501 112.804 34.35 113.679 34.35C115.079 34.35 116.079 33.75 116.079 32.75C116.079 31.8 114.779 31.425 113.479 30.975C111.879 30.425 109.629 29.725 109.629 27.5C109.629 25.525 111.454 24.3 113.779 24.3C115.154 24.3 117.354 25.1 117.904 27.175L116.079 27.8C115.704 26.425 114.454 26.15 113.779 26.15C112.579 26.15 111.704 26.65 111.704 27.5C111.704 28.45 112.904 28.775 114.304 29.25C115.979 29.825 118.154 30.525 118.154 32.75C118.154 34.8251 116.254 36.175 113.679 36.175C111.904 36.175 110.054 35.175 109.104 33.35L110.779 32.35Z" fill="black"/>
<path d="M101.397 36.175C98.1223 36.175 95.8223 33.725 95.8223 30.3C95.8223 26.85 98.1223 24.425 101.397 24.425C104.997 24.425 106.097 27.325 106.197 27.6C106.897 29.4 106.672 31.1251 106.672 31.2001H97.9223C98.2223 33.05 99.6723 34.35 101.397 34.35C103.697 34.35 104.547 32.9 104.722 32.625L106.372 33.475C105.797 34.775 104.147 36.175 101.397 36.175ZM104.647 29.4C104.422 27.625 103.547 26.25 101.397 26.25C99.6223 26.25 98.2223 27.55 97.9223 29.425L104.647 29.4Z" fill="black"/>
<path d="M84.4068 34.225C88.5568 34.225 91.4318 31.25 91.4318 26.975C91.4318 22.7 88.5568 19.725 84.4068 19.725H81.6068V34.225H84.4068ZM84.4068 17.875C89.7318 17.875 93.4818 21.625 93.4818 26.975C93.4818 32.325 89.7318 36.075 84.4068 36.075H79.5068V17.875H84.4068Z" fill="black"/>
<path d="M69.8611 17.875L63.6611 26.95L69.8611 36.075H67.3111L62.3861 28.75L57.4611 36.075H54.9111L61.1111 26.95L54.9111 17.875H57.4611L62.3861 25.15L67.3111 17.9L69.8611 17.875Z" fill="black"/>
<path d="M44.9982 36.25C40.6982 36.25 38.1982 33.225 38.1982 28.95V17.875H40.2982V28.975C40.2982 32.15 41.9232 34.35 44.9982 34.35C48.0732 34.35 49.7232 32.15 49.7232 28.975V17.875H51.8232V28.95C51.8232 33.225 49.2982 36.25 44.9982 36.25Z" fill="black"/>
<path d="M31.7773 17.875H33.8773V36.075H31.7773V17.875Z" fill="black"/>
<path d="M20.9748 36.25C16.6748 36.25 14.1748 33.225 14.1748 28.95V17.875H16.2748V28.975C16.2748 32.15 17.8998 34.35 20.9748 34.35C24.0498 34.35 25.6998 32.15 25.6998 28.975V17.875H27.7998V28.95C27.7998 33.225 25.2748 36.25 20.9748 36.25Z" fill="black"/>
</svg>
