<svg width="141" height="45" viewBox="0 0 141 45" fill="none" xmlns="http://www.w3.org/2000/svg">
<path d="M0 0H7V7H0V0Z" fill="white"/>
<path d="M7 0V7H0V0H7ZM1 6H6V1H1V6Z" fill="#4A4A4A"/>
<path d="M0 38H7V45H0V38Z" fill="white"/>
<path d="M7 38V45H0V38H7ZM1 44H6V39H1V44Z" fill="#4A4A4A"/>
<path d="M134 0H141V7H134V0Z" fill="white"/>
<path d="M141 0V7H134V0H141ZM135 6H140V1H135V6Z" fill="#4A4A4A"/>
<path d="M134 38H141V45H134V38Z" fill="white"/>
<path d="M141 38V45H134V38H141ZM135 44H140V39H135V44Z" fill="#4A4A4A"/>
<path d="M4 39L3 39L3 7L4 7L4 39Z" fill="#4A4A4A"/>
<path d="M138 39L137 39L137 7L138 7L138 39Z" fill="#4A4A4A"/>
<path d="M134 3V4L7 4V3L134 3Z" fill="#4A4A4A"/>
<path d="M134 41V42L7 42V41L134 41Z" fill="#4A4A4A"/>
<path d="M126.543 24.17C126.543 22.52 125.575 21.442 124.123 21.442C122.495 21.442 121.351 22.696 121.351 24.17V30.066H119.525V19.814H121.351V21.31C122.055 20.43 123.199 19.814 124.211 19.814C126.455 19.814 128.369 21.354 128.369 24.038V30.066H126.543V24.17Z" fill="black"/>
<path d="M111.446 28.548C113.206 28.548 114.548 26.942 114.548 24.984C114.548 23.07 113.184 21.42 111.446 21.42C109.62 21.42 108.344 22.894 108.344 24.984C108.344 27.118 109.62 28.548 111.446 28.548ZM116.396 29.406C116.396 32.376 114.416 34.752 111.336 34.752C109.664 34.752 108.124 34.004 107.09 32.376L108.586 31.43C109.312 32.596 110.214 33.102 111.336 33.102C113.36 33.102 114.548 31.474 114.548 29.45V28.35C113.8 29.45 112.524 30.176 111.38 30.176C108.542 30.176 106.518 28.02 106.518 25.006C106.518 21.992 108.542 19.792 111.38 19.792C112.656 19.792 113.866 20.474 114.548 21.552V19.792H116.396V29.406Z" fill="black"/>
<path d="M101.803 19.792H103.629V30.066H101.803V19.792ZM102.727 14.71C103.365 14.71 103.827 15.172 103.827 15.81C103.827 16.47 103.365 16.932 102.727 16.932C102.067 16.932 101.605 16.47 101.605 15.81C101.605 15.172 102.067 14.71 102.727 14.71Z" fill="black"/>
<path d="M92.6947 26.788C93.2667 28.02 94.4767 28.548 95.2467 28.548C96.4787 28.548 97.3587 28.02 97.3587 27.14C97.3587 26.304 96.2147 25.974 95.0707 25.578C93.6627 25.094 91.6827 24.478 91.6827 22.52C91.6827 20.782 93.2887 19.704 95.3347 19.704C96.5447 19.704 98.4807 20.408 98.9647 22.234L97.3587 22.784C97.0287 21.574 95.9287 21.332 95.3347 21.332C94.2787 21.332 93.5087 21.772 93.5087 22.52C93.5087 23.356 94.5647 23.642 95.7967 24.06C97.2707 24.566 99.1847 25.182 99.1847 27.14C99.1847 28.966 97.5127 30.154 95.2467 30.154C93.6847 30.154 92.0567 29.274 91.2207 27.668L92.6947 26.788Z" fill="black"/>
<path d="M84.4392 30.154C81.5572 30.154 79.5332 27.998 79.5332 24.984C79.5332 21.948 81.5572 19.814 84.4392 19.814C87.6072 19.814 88.5752 22.366 88.6632 22.608C89.2792 24.192 89.0812 25.71 89.0812 25.776H81.3812C81.6452 27.404 82.9212 28.548 84.4392 28.548C86.4632 28.548 87.2112 27.272 87.3652 27.03L88.8172 27.778C88.3112 28.922 86.8592 30.154 84.4392 30.154ZM87.2992 24.192C87.1012 22.63 86.3312 21.42 84.4392 21.42C82.8772 21.42 81.6452 22.564 81.3812 24.214L87.2992 24.192Z" fill="black"/>
<path d="M69.4868 28.438C73.1388 28.438 75.6688 25.82 75.6688 22.058C75.6688 18.296 73.1388 15.678 69.4868 15.678H67.0228V28.438H69.4868ZM69.4868 14.05C74.1728 14.05 77.4728 17.35 77.4728 22.058C77.4728 26.766 74.1728 30.0661 69.4868 30.0661H65.1748V14.05H69.4868Z" fill="black"/>
<path d="M52.0331 30.2421C51.0651 30.2421 49.7671 29.8241 48.8211 28.4381V30.1101H46.9951V14.5341H48.8211V21.6181C49.7671 20.2321 51.0651 19.8361 52.0551 19.8361C54.9151 19.8361 56.9611 21.9921 56.9611 25.0281C56.9611 28.0861 54.9151 30.2421 52.0331 30.2421ZM51.9671 28.6361C53.8371 28.6361 55.1351 27.1621 55.1351 25.0281C55.1351 22.9161 53.8371 21.4641 51.9671 21.4641C50.2511 21.4641 48.8211 23.0701 48.8211 25.0281C48.8211 27.0301 50.2511 28.6361 51.9671 28.6361Z" fill="black"/>
<path d="M39.7732 30.154C36.8912 30.154 34.8672 27.998 34.8672 24.984C34.8672 21.948 36.8912 19.814 39.7732 19.814C42.9412 19.814 43.9092 22.366 43.9972 22.608C44.6132 24.192 44.4152 25.71 44.4152 25.776H36.7152C36.9792 27.404 38.2552 28.548 39.7732 28.548C41.7972 28.548 42.5452 27.272 42.6992 27.03L44.1512 27.778C43.6452 28.922 42.1932 30.154 39.7732 30.154ZM42.6332 24.192C42.4352 22.63 41.6652 21.42 39.7732 21.42C38.2112 21.42 36.9792 22.564 36.7152 24.214L42.6332 24.192Z" fill="black"/>
<path d="M34.1324 14.05L29.5564 30.0661H27.7304L23.9244 17.328L20.2284 30.0661H18.3804L13.6504 14.05H15.5644L19.3044 26.81L22.9564 14.072H24.8704L28.5884 26.81L32.2184 14.05H34.1324Z" fill="black"/>
</svg>
