<svg width="63" height="63" viewBox="0 0 63 63" fill="none" xmlns="http://www.w3.org/2000/svg">
<path d="M63 31.5013C63 34.8906 49.8203 35.6323 48.5982 38.5808C47.3312 41.6375 56.0763 51.4728 53.7719 53.7745C51.4675 56.0763 41.6322 47.3312 38.5782 48.5982C35.6297 49.8204 34.888 63 31.4987 63C28.1094 63 27.3677 49.8204 24.4192 48.5982C21.3625 47.3312 11.5273 56.0763 9.2255 53.7719C6.92375 51.4701 15.6688 41.6322 14.4018 38.5782C13.1348 35.5241 0 34.888 0 31.4987C0 28.1094 13.1797 27.3677 14.4018 24.4192C15.6688 21.3625 6.92375 11.5273 9.22815 9.2255C11.5299 6.92375 21.3678 15.6688 24.4218 14.4018C27.3703 13.1797 28.112 0 31.5013 0C34.8906 0 35.6323 13.1797 38.5808 14.4018C41.6375 15.6688 51.4727 6.92375 53.7745 9.22815C56.0763 11.5299 47.3312 21.3678 48.5982 24.4219C49.8203 27.3703 63 28.112 63 31.5013Z" fill="#F2C94C"/>
</svg>
