<svg width="679" height="127" viewBox="0 0 679 127" fill="none" xmlns="http://www.w3.org/2000/svg">
<path d="M0 0H9V9H0V0Z" fill="white"/>
<path d="M9 0V9H0V0H9ZM1 8H8V1H1V8Z" fill="#4A4A4A"/>
<path d="M0 98H9V107H0V98Z" fill="white"/>
<path d="M9 98V107H0V98H9ZM1 106H8V99H1V106Z" fill="#4A4A4A"/>
<path d="M653 0H662V9H653V0Z" fill="white"/>
<path d="M662 0V9H653V0H662ZM654 8H661V1H654V8Z" fill="#4A4A4A"/>
<path d="M653 98H662V107H653V98Z" fill="white"/>
<path d="M662 98V107H653V98H662ZM654 106H661V99H654V106Z" fill="#4A4A4A"/>
<path d="M5 98L4 98L4 9L5 9L5 98Z" fill="#4A4A4A"/>
<path d="M658 98L657 98L657 9L658 9L658 98Z" fill="#4A4A4A"/>
<path d="M653 4V5L9 5V4L653 4Z" fill="#4A4A4A"/>
<path d="M653 102V103L9 103V102L653 102Z" fill="#4A4A4A"/>
<path d="M657.227 103.799C657.038 102.964 657.917 102.294 658.672 102.696L668.397 107.877L677.809 112.891C678.61 113.318 678.474 114.505 677.598 114.74L668.957 117.055C668.703 117.123 668.486 117.289 668.353 117.516L663.835 125.236C663.377 126.019 662.196 125.836 661.996 124.951L659.65 114.548L657.227 103.799Z" fill="#4A4A4A"/>
</svg>
