<svg width="129" height="129" viewBox="0 0 129 129" fill="none" xmlns="http://www.w3.org/2000/svg">
<path d="M115 0C115.002 0.026596 115.437 6.14524 117.813 9.53125L123.666 5.33398L119.469 11.1865C122.862 13.568 129 14 129 14C129 14 123.107 14.4154 119.677 16.6729L123.666 22.2354L118.019 18.1846C115.454 21.5066 115 28 115 28C115 28 114.56 21.7644 112.128 18.3887L106.766 22.2354L110.611 16.8711C107.24 14.4425 101.017 14.0012 101 14C101.014 13.999 107.495 13.5409 110.813 10.9795L106.766 5.33398L112.326 9.32227C114.579 5.89988 114.998 0.0254706 115 0Z" fill="#1F4E79"/>
<circle cx="93" cy="14" r="2" fill="#1F4E79"/>
<circle cx="115" cy="36" r="2" fill="#1F4E79"/>
<path d="M115 47V128" stroke="#1F4E79" stroke-linecap="round"/>
<path d="M82 14L1 14" stroke="#1F4E79" stroke-linecap="round"/>
</svg>
