<svg width="32" height="32" viewBox="0 0 32 32" fill="none" xmlns="http://www.w3.org/2000/svg">
<path d="M16 0C16 0 16.4934 7.01431 19.2148 10.8926L25.9043 6.09668L21.1074 12.7852C24.9857 15.5066 32 16 32 16C32 16 25.2645 16.4747 21.3447 19.0547L25.9043 25.4121L19.4512 20.7842C16.5256 24.5747 16.0017 31.9757 16 32C15.9984 31.9771 15.4928 24.8674 12.7178 21.0156L6.58887 25.4121L10.9844 19.2822C7.13083 16.5059 0.0162989 16.0011 0 16C0.0188745 15.9987 7.42508 15.4759 11.2168 12.5488L6.58887 6.09668L12.9443 10.6543C15.5242 6.7345 16 0 16 0Z" fill="#1F4E79"/>
</svg>
